<?xml version="1.0" encoding="utf-8" standalone="no"?>
<!DOCTYPE svg PUBLIC "-//W3C//DTD SVG 1.1//EN"
  "http://www.w3.org/Graphics/SVG/1.1/DTD/svg11.dtd">
<svg xmlns:xlink="http://www.w3.org/1999/xlink" width="1152pt" height="432pt" viewBox="0 0 1152 432" xmlns="http://www.w3.org/2000/svg" version="1.1">
 <metadata>
  <rdf:RDF xmlns:dc="http://purl.org/dc/elements/1.1/" xmlns:cc="http://creativecommons.org/ns#" xmlns:rdf="http://www.w3.org/1999/02/22-rdf-syntax-ns#">
   <cc:Work>
    <dc:type rdf:resource="http://purl.org/dc/dcmitype/StillImage"/>
    <dc:date>2025-04-23T15:35:33.949299</dc:date>
    <dc:format>image/svg+xml</dc:format>
    <dc:creator>
     <cc:Agent>
      <dc:title>Matplotlib v3.10.1, https://matplotlib.org/</dc:title>
     </cc:Agent>
    </dc:creator>
   </cc:Work>
  </rdf:RDF>
 </metadata>
 <defs>
  <style type="text/css">*{stroke-linejoin: round; stroke-linecap: butt}</style>
 </defs>
 <g id="figure_1">
  <g id="patch_1">
   <path d="M 0 432 
L 1152 432 
L 1152 0 
L 0 0 
z
" style="fill: #ffffff"/>
  </g>
  <g id="axes_1">
   <g id="patch_2">
    <path d="M 44.57 389.93875 
L 275.85 389.93875 
L 275.85 26.88 
L 44.57 26.88 
z
" style="fill: #ffffff"/>
   </g>
   <g id="patch_3">
    <path d="M 51.067867 389.93875 
L 61.7508 389.93875 
L 61.7508 44.168512 
L 51.067867 44.168512 
z
" clip-path="url(#pc93662df23)" style="fill: #1f77b4; fill-opacity: 0.5; stroke: #ffffff; stroke-width: 0.896497; stroke-linejoin: miter"/>
   </g>
   <g id="patch_4">
    <path d="M 61.7508 389.93875 
L 72.433733 389.93875 
L 72.433733 81.888902 
L 61.7508 81.888902 
z
" clip-path="url(#pc93662df23)" style="fill: #1f77b4; fill-opacity: 0.5; stroke: #ffffff; stroke-width: 0.896497; stroke-linejoin: miter"/>
   </g>
   <g id="patch_5">
    <path d="M 72.433733 389.93875 
L 83.116667 389.93875 
L 83.116667 94.462365 
L 72.433733 94.462365 
z
" clip-path="url(#pc93662df23)" style="fill: #1f77b4; fill-opacity: 0.5; stroke: #ffffff; stroke-width: 0.896497; stroke-linejoin: miter"/>
   </g>
   <g id="patch_6">
    <path d="M 83.116667 389.93875 
L 93.7996 389.93875 
L 93.7996 100.749096 
L 83.116667 100.749096 
z
" clip-path="url(#pc93662df23)" style="fill: #1f77b4; fill-opacity: 0.5; stroke: #ffffff; stroke-width: 0.896497; stroke-linejoin: miter"/>
   </g>
   <g id="patch_7">
    <path d="M 93.7996 389.93875 
L 104.482533 389.93875 
L 104.482533 113.32256 
L 93.7996 113.32256 
z
" clip-path="url(#pc93662df23)" style="fill: #1f77b4; fill-opacity: 0.5; stroke: #ffffff; stroke-width: 0.896497; stroke-linejoin: miter"/>
   </g>
   <g id="patch_8">
    <path d="M 104.482533 389.93875 
L 115.165467 389.93875 
L 115.165467 132.182754 
L 104.482533 132.182754 
z
" clip-path="url(#pc93662df23)" style="fill: #1f77b4; fill-opacity: 0.5; stroke: #ffffff; stroke-width: 0.896497; stroke-linejoin: miter"/>
   </g>
   <g id="patch_9">
    <path d="M 115.165467 389.93875 
L 125.8484 389.93875 
L 125.8484 113.32256 
L 115.165467 113.32256 
z
" clip-path="url(#pc93662df23)" style="fill: #1f77b4; fill-opacity: 0.5; stroke: #ffffff; stroke-width: 0.896497; stroke-linejoin: miter"/>
   </g>
   <g id="patch_10">
    <path d="M 125.8484 389.93875 
L 136.531333 389.93875 
L 136.531333 100.749096 
L 125.8484 100.749096 
z
" clip-path="url(#pc93662df23)" style="fill: #1f77b4; fill-opacity: 0.5; stroke: #ffffff; stroke-width: 0.896497; stroke-linejoin: miter"/>
   </g>
   <g id="patch_11">
    <path d="M 136.531333 389.93875 
L 147.214267 389.93875 
L 147.214267 182.476607 
L 136.531333 182.476607 
z
" clip-path="url(#pc93662df23)" style="fill: #1f77b4; fill-opacity: 0.5; stroke: #ffffff; stroke-width: 0.896497; stroke-linejoin: miter"/>
   </g>
   <g id="patch_12">
    <path d="M 147.214267 389.93875 
L 157.8972 389.93875 
L 157.8972 157.329681 
L 147.214267 157.329681 
z
" clip-path="url(#pc93662df23)" style="fill: #1f77b4; fill-opacity: 0.5; stroke: #ffffff; stroke-width: 0.896497; stroke-linejoin: miter"/>
   </g>
   <g id="patch_13">
    <path d="M 157.8972 389.93875 
L 168.580133 389.93875 
L 168.580133 81.888902 
L 157.8972 81.888902 
z
" clip-path="url(#pc93662df23)" style="fill: #1f77b4; fill-opacity: 0.5; stroke: #ffffff; stroke-width: 0.896497; stroke-linejoin: miter"/>
   </g>
   <g id="patch_14">
    <path d="M 168.580133 389.93875 
L 179.263067 389.93875 
L 179.263067 63.028707 
L 168.580133 63.028707 
z
" clip-path="url(#pc93662df23)" style="fill: #1f77b4; fill-opacity: 0.5; stroke: #ffffff; stroke-width: 0.896497; stroke-linejoin: miter"/>
   </g>
   <g id="patch_15">
    <path d="M 179.263067 389.93875 
L 189.946 389.93875 
L 189.946 56.741975 
L 179.263067 56.741975 
z
" clip-path="url(#pc93662df23)" style="fill: #1f77b4; fill-opacity: 0.5; stroke: #ffffff; stroke-width: 0.896497; stroke-linejoin: miter"/>
   </g>
   <g id="patch_16">
    <path d="M 189.946 389.93875 
L 200.628933 389.93875 
L 200.628933 157.329681 
L 189.946 157.329681 
z
" clip-path="url(#pc93662df23)" style="fill: #1f77b4; fill-opacity: 0.5; stroke: #ffffff; stroke-width: 0.896497; stroke-linejoin: miter"/>
   </g>
   <g id="patch_17">
    <path d="M 200.628933 389.93875 
L 211.311867 389.93875 
L 211.311867 163.616412 
L 200.628933 163.616412 
z
" clip-path="url(#pc93662df23)" style="fill: #1f77b4; fill-opacity: 0.5; stroke: #ffffff; stroke-width: 0.896497; stroke-linejoin: miter"/>
   </g>
   <g id="patch_18">
    <path d="M 211.311867 389.93875 
L 221.9948 389.93875 
L 221.9948 125.896023 
L 211.311867 125.896023 
z
" clip-path="url(#pc93662df23)" style="fill: #1f77b4; fill-opacity: 0.5; stroke: #ffffff; stroke-width: 0.896497; stroke-linejoin: miter"/>
   </g>
   <g id="patch_19">
    <path d="M 221.9948 389.93875 
L 232.677733 389.93875 
L 232.677733 138.469486 
L 221.9948 138.469486 
z
" clip-path="url(#pc93662df23)" style="fill: #1f77b4; fill-opacity: 0.5; stroke: #ffffff; stroke-width: 0.896497; stroke-linejoin: miter"/>
   </g>
   <g id="patch_20">
    <path d="M 232.677733 389.93875 
L 243.360667 389.93875 
L 243.360667 119.609291 
L 232.677733 119.609291 
z
" clip-path="url(#pc93662df23)" style="fill: #1f77b4; fill-opacity: 0.5; stroke: #ffffff; stroke-width: 0.896497; stroke-linejoin: miter"/>
   </g>
   <g id="patch_21">
    <path d="M 243.360667 389.93875 
L 254.0436 389.93875 
L 254.0436 100.749096 
L 243.360667 100.749096 
z
" clip-path="url(#pc93662df23)" style="fill: #1f77b4; fill-opacity: 0.5; stroke: #ffffff; stroke-width: 0.896497; stroke-linejoin: miter"/>
   </g>
   <g id="patch_22">
    <path d="M 254.0436 389.93875 
L 264.726533 389.93875 
L 264.726533 119.609291 
L 254.0436 119.609291 
z
" clip-path="url(#pc93662df23)" style="fill: #1f77b4; fill-opacity: 0.5; stroke: #ffffff; stroke-width: 0.896497; stroke-linejoin: miter"/>
   </g>
   <g id="matplotlib.axis_1">
    <g id="xtick_1">
     <g id="line2d_1">
      <defs>
       <path id="mb72b07fc28" d="M 0 0 
L 0 3.5 
" style="stroke: #000000; stroke-width: 0.8"/>
      </defs>
      <g>
       <use xlink:href="#mb72b07fc28" x="44.57" y="389.93875" style="stroke: #000000; stroke-width: 0.8"/>
      </g>
     </g>
     <g id="text_1">
      <!-- 0 -->
      <g transform="translate(41.38875 404.537187) scale(0.1 -0.1)">
       <defs>
        <path id="DejaVuSans-30" d="M 2034 4250 
Q 1547 4250 1301 3770 
Q 1056 3291 1056 2328 
Q 1056 1369 1301 889 
Q 1547 409 2034 409 
Q 2525 409 2770 889 
Q 3016 1369 3016 2328 
Q 3016 3291 2770 3770 
Q 2525 4250 2034 4250 
z
M 2034 4750 
Q 2819 4750 3233 4129 
Q 3647 3509 3647 2328 
Q 3647 1150 3233 529 
Q 2819 -91 2034 -91 
Q 1250 -91 836 529 
Q 422 1150 422 2328 
Q 422 3509 836 4129 
Q 1250 4750 2034 4750 
z
" transform="scale(0.015625)"/>
       </defs>
       <use xlink:href="#DejaVuSans-30"/>
      </g>
     </g>
    </g>
    <g id="xtick_2">
     <g id="line2d_2">
      <g>
       <use xlink:href="#mb72b07fc28" x="99.636667" y="389.93875" style="stroke: #000000; stroke-width: 0.8"/>
      </g>
     </g>
     <g id="text_2">
      <!-- 5 -->
      <g transform="translate(96.455417 404.537187) scale(0.1 -0.1)">
       <defs>
        <path id="DejaVuSans-35" d="M 691 4666 
L 3169 4666 
L 3169 4134 
L 1269 4134 
L 1269 2991 
Q 1406 3038 1543 3061 
Q 1681 3084 1819 3084 
Q 2600 3084 3056 2656 
Q 3513 2228 3513 1497 
Q 3513 744 3044 326 
Q 2575 -91 1722 -91 
Q 1428 -91 1123 -41 
Q 819 9 494 109 
L 494 744 
Q 775 591 1075 516 
Q 1375 441 1709 441 
Q 2250 441 2565 725 
Q 2881 1009 2881 1497 
Q 2881 1984 2565 2268 
Q 2250 2553 1709 2553 
Q 1456 2553 1204 2497 
Q 953 2441 691 2322 
L 691 4666 
z
" transform="scale(0.015625)"/>
       </defs>
       <use xlink:href="#DejaVuSans-35"/>
      </g>
     </g>
    </g>
    <g id="xtick_3">
     <g id="line2d_3">
      <g>
       <use xlink:href="#mb72b07fc28" x="154.703333" y="389.93875" style="stroke: #000000; stroke-width: 0.8"/>
      </g>
     </g>
     <g id="text_3">
      <!-- 10 -->
      <g transform="translate(148.340833 404.537187) scale(0.1 -0.1)">
       <defs>
        <path id="DejaVuSans-31" d="M 794 531 
L 1825 531 
L 1825 4091 
L 703 3866 
L 703 4441 
L 1819 4666 
L 2450 4666 
L 2450 531 
L 3481 531 
L 3481 0 
L 794 0 
L 794 531 
z
" transform="scale(0.015625)"/>
       </defs>
       <use xlink:href="#DejaVuSans-31"/>
       <use xlink:href="#DejaVuSans-30" transform="translate(63.623047 0)"/>
      </g>
     </g>
    </g>
    <g id="xtick_4">
     <g id="line2d_4">
      <g>
       <use xlink:href="#mb72b07fc28" x="209.77" y="389.93875" style="stroke: #000000; stroke-width: 0.8"/>
      </g>
     </g>
     <g id="text_4">
      <!-- 15 -->
      <g transform="translate(203.4075 404.537187) scale(0.1 -0.1)">
       <use xlink:href="#DejaVuSans-31"/>
       <use xlink:href="#DejaVuSans-35" transform="translate(63.623047 0)"/>
      </g>
     </g>
    </g>
    <g id="xtick_5">
     <g id="line2d_5">
      <g>
       <use xlink:href="#mb72b07fc28" x="264.836667" y="389.93875" style="stroke: #000000; stroke-width: 0.8"/>
      </g>
     </g>
     <g id="text_5">
      <!-- 20 -->
      <g transform="translate(258.474167 404.537187) scale(0.1 -0.1)">
       <defs>
        <path id="DejaVuSans-32" d="M 1228 531 
L 3431 531 
L 3431 0 
L 469 0 
L 469 531 
Q 828 903 1448 1529 
Q 2069 2156 2228 2338 
Q 2531 2678 2651 2914 
Q 2772 3150 2772 3378 
Q 2772 3750 2511 3984 
Q 2250 4219 1831 4219 
Q 1534 4219 1204 4116 
Q 875 4013 500 3803 
L 500 4441 
Q 881 4594 1212 4672 
Q 1544 4750 1819 4750 
Q 2544 4750 2975 4387 
Q 3406 4025 3406 3419 
Q 3406 3131 3298 2873 
Q 3191 2616 2906 2266 
Q 2828 2175 2409 1742 
Q 1991 1309 1228 531 
z
" transform="scale(0.015625)"/>
       </defs>
       <use xlink:href="#DejaVuSans-32"/>
       <use xlink:href="#DejaVuSans-30" transform="translate(63.623047 0)"/>
      </g>
     </g>
    </g>
    <g id="text_6">
     <!-- Distance_km -->
     <g transform="translate(128.081875 418.215312) scale(0.1 -0.1)">
      <defs>
       <path id="DejaVuSans-44" d="M 1259 4147 
L 1259 519 
L 2022 519 
Q 2988 519 3436 956 
Q 3884 1394 3884 2338 
Q 3884 3275 3436 3711 
Q 2988 4147 2022 4147 
L 1259 4147 
z
M 628 4666 
L 1925 4666 
Q 3281 4666 3915 4102 
Q 4550 3538 4550 2338 
Q 4550 1131 3912 565 
Q 3275 0 1925 0 
L 628 0 
L 628 4666 
z
" transform="scale(0.015625)"/>
       <path id="DejaVuSans-69" d="M 603 3500 
L 1178 3500 
L 1178 0 
L 603 0 
L 603 3500 
z
M 603 4863 
L 1178 4863 
L 1178 4134 
L 603 4134 
L 603 4863 
z
" transform="scale(0.015625)"/>
       <path id="DejaVuSans-73" d="M 2834 3397 
L 2834 2853 
Q 2591 2978 2328 3040 
Q 2066 3103 1784 3103 
Q 1356 3103 1142 2972 
Q 928 2841 928 2578 
Q 928 2378 1081 2264 
Q 1234 2150 1697 2047 
L 1894 2003 
Q 2506 1872 2764 1633 
Q 3022 1394 3022 966 
Q 3022 478 2636 193 
Q 2250 -91 1575 -91 
Q 1294 -91 989 -36 
Q 684 19 347 128 
L 347 722 
Q 666 556 975 473 
Q 1284 391 1588 391 
Q 1994 391 2212 530 
Q 2431 669 2431 922 
Q 2431 1156 2273 1281 
Q 2116 1406 1581 1522 
L 1381 1569 
Q 847 1681 609 1914 
Q 372 2147 372 2553 
Q 372 3047 722 3315 
Q 1072 3584 1716 3584 
Q 2034 3584 2315 3537 
Q 2597 3491 2834 3397 
z
" transform="scale(0.015625)"/>
       <path id="DejaVuSans-74" d="M 1172 4494 
L 1172 3500 
L 2356 3500 
L 2356 3053 
L 1172 3053 
L 1172 1153 
Q 1172 725 1289 603 
Q 1406 481 1766 481 
L 2356 481 
L 2356 0 
L 1766 0 
Q 1100 0 847 248 
Q 594 497 594 1153 
L 594 3053 
L 172 3053 
L 172 3500 
L 594 3500 
L 594 4494 
L 1172 4494 
z
" transform="scale(0.015625)"/>
       <path id="DejaVuSans-61" d="M 2194 1759 
Q 1497 1759 1228 1600 
Q 959 1441 959 1056 
Q 959 750 1161 570 
Q 1363 391 1709 391 
Q 2188 391 2477 730 
Q 2766 1069 2766 1631 
L 2766 1759 
L 2194 1759 
z
M 3341 1997 
L 3341 0 
L 2766 0 
L 2766 531 
Q 2569 213 2275 61 
Q 1981 -91 1556 -91 
Q 1019 -91 701 211 
Q 384 513 384 1019 
Q 384 1609 779 1909 
Q 1175 2209 1959 2209 
L 2766 2209 
L 2766 2266 
Q 2766 2663 2505 2880 
Q 2244 3097 1772 3097 
Q 1472 3097 1187 3025 
Q 903 2953 641 2809 
L 641 3341 
Q 956 3463 1253 3523 
Q 1550 3584 1831 3584 
Q 2591 3584 2966 3190 
Q 3341 2797 3341 1997 
z
" transform="scale(0.015625)"/>
       <path id="DejaVuSans-6e" d="M 3513 2113 
L 3513 0 
L 2938 0 
L 2938 2094 
Q 2938 2591 2744 2837 
Q 2550 3084 2163 3084 
Q 1697 3084 1428 2787 
Q 1159 2491 1159 1978 
L 1159 0 
L 581 0 
L 581 3500 
L 1159 3500 
L 1159 2956 
Q 1366 3272 1645 3428 
Q 1925 3584 2291 3584 
Q 2894 3584 3203 3211 
Q 3513 2838 3513 2113 
z
" transform="scale(0.015625)"/>
       <path id="DejaVuSans-63" d="M 3122 3366 
L 3122 2828 
Q 2878 2963 2633 3030 
Q 2388 3097 2138 3097 
Q 1578 3097 1268 2742 
Q 959 2388 959 1747 
Q 959 1106 1268 751 
Q 1578 397 2138 397 
Q 2388 397 2633 464 
Q 2878 531 3122 666 
L 3122 134 
Q 2881 22 2623 -34 
Q 2366 -91 2075 -91 
Q 1284 -91 818 406 
Q 353 903 353 1747 
Q 353 2603 823 3093 
Q 1294 3584 2113 3584 
Q 2378 3584 2631 3529 
Q 2884 3475 3122 3366 
z
" transform="scale(0.015625)"/>
       <path id="DejaVuSans-65" d="M 3597 1894 
L 3597 1613 
L 953 1613 
Q 991 1019 1311 708 
Q 1631 397 2203 397 
Q 2534 397 2845 478 
Q 3156 559 3463 722 
L 3463 178 
Q 3153 47 2828 -22 
Q 2503 -91 2169 -91 
Q 1331 -91 842 396 
Q 353 884 353 1716 
Q 353 2575 817 3079 
Q 1281 3584 2069 3584 
Q 2775 3584 3186 3129 
Q 3597 2675 3597 1894 
z
M 3022 2063 
Q 3016 2534 2758 2815 
Q 2500 3097 2075 3097 
Q 1594 3097 1305 2825 
Q 1016 2553 972 2059 
L 3022 2063 
z
" transform="scale(0.015625)"/>
       <path id="DejaVuSans-5f" d="M 3263 -1063 
L 3263 -1509 
L -63 -1509 
L -63 -1063 
L 3263 -1063 
z
" transform="scale(0.015625)"/>
       <path id="DejaVuSans-6b" d="M 581 4863 
L 1159 4863 
L 1159 1991 
L 2875 3500 
L 3609 3500 
L 1753 1863 
L 3688 0 
L 2938 0 
L 1159 1709 
L 1159 0 
L 581 0 
L 581 4863 
z
" transform="scale(0.015625)"/>
       <path id="DejaVuSans-6d" d="M 3328 2828 
Q 3544 3216 3844 3400 
Q 4144 3584 4550 3584 
Q 5097 3584 5394 3201 
Q 5691 2819 5691 2113 
L 5691 0 
L 5113 0 
L 5113 2094 
Q 5113 2597 4934 2840 
Q 4756 3084 4391 3084 
Q 3944 3084 3684 2787 
Q 3425 2491 3425 1978 
L 3425 0 
L 2847 0 
L 2847 2094 
Q 2847 2600 2669 2842 
Q 2491 3084 2119 3084 
Q 1678 3084 1418 2786 
Q 1159 2488 1159 1978 
L 1159 0 
L 581 0 
L 581 3500 
L 1159 3500 
L 1159 2956 
Q 1356 3278 1631 3431 
Q 1906 3584 2284 3584 
Q 2666 3584 2933 3390 
Q 3200 3197 3328 2828 
z
" transform="scale(0.015625)"/>
      </defs>
      <use xlink:href="#DejaVuSans-44"/>
      <use xlink:href="#DejaVuSans-69" transform="translate(77.001953 0)"/>
      <use xlink:href="#DejaVuSans-73" transform="translate(104.785156 0)"/>
      <use xlink:href="#DejaVuSans-74" transform="translate(156.884766 0)"/>
      <use xlink:href="#DejaVuSans-61" transform="translate(196.09375 0)"/>
      <use xlink:href="#DejaVuSans-6e" transform="translate(257.373047 0)"/>
      <use xlink:href="#DejaVuSans-63" transform="translate(320.751953 0)"/>
      <use xlink:href="#DejaVuSans-65" transform="translate(375.732422 0)"/>
      <use xlink:href="#DejaVuSans-5f" transform="translate(437.255859 0)"/>
      <use xlink:href="#DejaVuSans-6b" transform="translate(487.255859 0)"/>
      <use xlink:href="#DejaVuSans-6d" transform="translate(545.166016 0)"/>
     </g>
    </g>
   </g>
   <g id="matplotlib.axis_2">
    <g id="ytick_1">
     <g id="line2d_6">
      <defs>
       <path id="m854f36a99e" d="M 0 0 
L -3.5 0 
" style="stroke: #000000; stroke-width: 0.8"/>
      </defs>
      <g>
       <use xlink:href="#m854f36a99e" x="44.57" y="389.93875" style="stroke: #000000; stroke-width: 0.8"/>
      </g>
     </g>
     <g id="text_7">
      <!-- 0 -->
      <g transform="translate(31.2075 393.737969) scale(0.1 -0.1)">
       <use xlink:href="#DejaVuSans-30"/>
      </g>
     </g>
    </g>
    <g id="ytick_2">
     <g id="line2d_7">
      <g>
       <use xlink:href="#m854f36a99e" x="44.57" y="327.071434" style="stroke: #000000; stroke-width: 0.8"/>
      </g>
     </g>
     <g id="text_8">
      <!-- 10 -->
      <g transform="translate(24.845 330.870653) scale(0.1 -0.1)">
       <use xlink:href="#DejaVuSans-31"/>
       <use xlink:href="#DejaVuSans-30" transform="translate(63.623047 0)"/>
      </g>
     </g>
    </g>
    <g id="ytick_3">
     <g id="line2d_8">
      <g>
       <use xlink:href="#m854f36a99e" x="44.57" y="264.204118" style="stroke: #000000; stroke-width: 0.8"/>
      </g>
     </g>
     <g id="text_9">
      <!-- 20 -->
      <g transform="translate(24.845 268.003337) scale(0.1 -0.1)">
       <use xlink:href="#DejaVuSans-32"/>
       <use xlink:href="#DejaVuSans-30" transform="translate(63.623047 0)"/>
      </g>
     </g>
    </g>
    <g id="ytick_4">
     <g id="line2d_9">
      <g>
       <use xlink:href="#m854f36a99e" x="44.57" y="201.336802" style="stroke: #000000; stroke-width: 0.8"/>
      </g>
     </g>
     <g id="text_10">
      <!-- 30 -->
      <g transform="translate(24.845 205.136021) scale(0.1 -0.1)">
       <defs>
        <path id="DejaVuSans-33" d="M 2597 2516 
Q 3050 2419 3304 2112 
Q 3559 1806 3559 1356 
Q 3559 666 3084 287 
Q 2609 -91 1734 -91 
Q 1441 -91 1130 -33 
Q 819 25 488 141 
L 488 750 
Q 750 597 1062 519 
Q 1375 441 1716 441 
Q 2309 441 2620 675 
Q 2931 909 2931 1356 
Q 2931 1769 2642 2001 
Q 2353 2234 1838 2234 
L 1294 2234 
L 1294 2753 
L 1863 2753 
Q 2328 2753 2575 2939 
Q 2822 3125 2822 3475 
Q 2822 3834 2567 4026 
Q 2313 4219 1838 4219 
Q 1578 4219 1281 4162 
Q 984 4106 628 3988 
L 628 4550 
Q 988 4650 1302 4700 
Q 1616 4750 1894 4750 
Q 2613 4750 3031 4423 
Q 3450 4097 3450 3541 
Q 3450 3153 3228 2886 
Q 3006 2619 2597 2516 
z
" transform="scale(0.015625)"/>
       </defs>
       <use xlink:href="#DejaVuSans-33"/>
       <use xlink:href="#DejaVuSans-30" transform="translate(63.623047 0)"/>
      </g>
     </g>
    </g>
    <g id="ytick_5">
     <g id="line2d_10">
      <g>
       <use xlink:href="#m854f36a99e" x="44.57" y="138.469486" style="stroke: #000000; stroke-width: 0.8"/>
      </g>
     </g>
     <g id="text_11">
      <!-- 40 -->
      <g transform="translate(24.845 142.268705) scale(0.1 -0.1)">
       <defs>
        <path id="DejaVuSans-34" d="M 2419 4116 
L 825 1625 
L 2419 1625 
L 2419 4116 
z
M 2253 4666 
L 3047 4666 
L 3047 1625 
L 3713 1625 
L 3713 1100 
L 3047 1100 
L 3047 0 
L 2419 0 
L 2419 1100 
L 313 1100 
L 313 1709 
L 2253 4666 
z
" transform="scale(0.015625)"/>
       </defs>
       <use xlink:href="#DejaVuSans-34"/>
       <use xlink:href="#DejaVuSans-30" transform="translate(63.623047 0)"/>
      </g>
     </g>
    </g>
    <g id="ytick_6">
     <g id="line2d_11">
      <g>
       <use xlink:href="#m854f36a99e" x="44.57" y="75.60217" style="stroke: #000000; stroke-width: 0.8"/>
      </g>
     </g>
     <g id="text_12">
      <!-- 50 -->
      <g transform="translate(24.845 79.401389) scale(0.1 -0.1)">
       <use xlink:href="#DejaVuSans-35"/>
       <use xlink:href="#DejaVuSans-30" transform="translate(63.623047 0)"/>
      </g>
     </g>
    </g>
    <g id="text_13">
     <!-- Count -->
     <g transform="translate(18.765312 223.257812) rotate(-90) scale(0.1 -0.1)">
      <defs>
       <path id="DejaVuSans-43" d="M 4122 4306 
L 4122 3641 
Q 3803 3938 3442 4084 
Q 3081 4231 2675 4231 
Q 1875 4231 1450 3742 
Q 1025 3253 1025 2328 
Q 1025 1406 1450 917 
Q 1875 428 2675 428 
Q 3081 428 3442 575 
Q 3803 722 4122 1019 
L 4122 359 
Q 3791 134 3420 21 
Q 3050 -91 2638 -91 
Q 1578 -91 968 557 
Q 359 1206 359 2328 
Q 359 3453 968 4101 
Q 1578 4750 2638 4750 
Q 3056 4750 3426 4639 
Q 3797 4528 4122 4306 
z
" transform="scale(0.015625)"/>
       <path id="DejaVuSans-6f" d="M 1959 3097 
Q 1497 3097 1228 2736 
Q 959 2375 959 1747 
Q 959 1119 1226 758 
Q 1494 397 1959 397 
Q 2419 397 2687 759 
Q 2956 1122 2956 1747 
Q 2956 2369 2687 2733 
Q 2419 3097 1959 3097 
z
M 1959 3584 
Q 2709 3584 3137 3096 
Q 3566 2609 3566 1747 
Q 3566 888 3137 398 
Q 2709 -91 1959 -91 
Q 1206 -91 779 398 
Q 353 888 353 1747 
Q 353 2609 779 3096 
Q 1206 3584 1959 3584 
z
" transform="scale(0.015625)"/>
       <path id="DejaVuSans-75" d="M 544 1381 
L 544 3500 
L 1119 3500 
L 1119 1403 
Q 1119 906 1312 657 
Q 1506 409 1894 409 
Q 2359 409 2629 706 
Q 2900 1003 2900 1516 
L 2900 3500 
L 3475 3500 
L 3475 0 
L 2900 0 
L 2900 538 
Q 2691 219 2414 64 
Q 2138 -91 1772 -91 
Q 1169 -91 856 284 
Q 544 659 544 1381 
z
M 1991 3584 
L 1991 3584 
z
" transform="scale(0.015625)"/>
      </defs>
      <use xlink:href="#DejaVuSans-43"/>
      <use xlink:href="#DejaVuSans-6f" transform="translate(69.824219 0)"/>
      <use xlink:href="#DejaVuSans-75" transform="translate(131.005859 0)"/>
      <use xlink:href="#DejaVuSans-6e" transform="translate(194.384766 0)"/>
      <use xlink:href="#DejaVuSans-74" transform="translate(257.763672 0)"/>
     </g>
    </g>
   </g>
   <g id="line2d_12">
    <path d="M 2.667133 389.460275 
L 5.787336 389.055535 
L 8.907538 388.364147 
L 10.467639 387.863375 
L 12.02774 387.226735 
L 13.587841 386.424966 
L 15.147943 385.424724 
L 16.708044 384.188601 
L 18.268145 382.675328 
L 19.828246 380.840175 
L 21.388347 378.635594 
L 22.948448 376.012113 
L 24.50855 372.919488 
L 26.068651 369.308103 
L 27.628752 365.130601 
L 29.188853 360.343694 
L 30.748954 354.910091 
L 32.309056 348.800476 
L 33.869157 341.995432 
L 35.429258 334.487214 
L 36.989359 326.281271 
L 38.54946 317.397418 
L 41.669663 297.750863 
L 44.789865 276.007505 
L 49.470168 240.993806 
L 54.150472 205.724233 
L 57.270674 183.59271 
L 60.390877 163.513555 
L 61.950978 154.44368 
L 63.511079 146.099218 
L 65.07118 138.520462 
L 66.631281 131.732332 
L 68.191383 125.744748 
L 69.751484 120.553426 
L 71.311585 116.141019 
L 72.871686 112.478532 
L 74.431787 109.526922 
L 75.991888 107.238819 
L 77.55199 105.560276 
L 79.112091 104.43252 
L 80.672192 103.793622 
L 82.232293 103.580088 
L 83.792394 103.728308 
L 85.352495 104.175875 
L 86.912597 104.862748 
L 88.472698 105.732266 
L 91.5929 107.814439 
L 97.833305 112.219862 
L 100.953507 114.112143 
L 104.07371 115.670827 
L 107.193912 116.909083 
L 110.314114 117.906954 
L 118.11462 120.197754 
L 121.234822 121.368741 
L 124.355025 122.798517 
L 127.475227 124.466823 
L 133.715632 128.01168 
L 136.835834 129.452906 
L 138.395935 129.974773 
L 139.956037 130.319723 
L 141.516138 130.457607 
L 143.076239 130.362547 
L 144.63634 130.014227 
L 146.196441 129.398993 
L 147.756542 128.510702 
L 149.316644 127.351268 
L 150.876745 125.930913 
L 152.436846 124.268084 
L 153.996947 122.389081 
L 157.117149 118.122812 
L 164.917655 106.64064 
L 166.477756 104.613641 
L 168.037858 102.793295 
L 169.597959 101.223256 
L 171.15806 99.941733 
L 172.718161 98.980434 
L 174.278262 98.363658 
L 175.838363 98.107561 
L 177.398465 98.219624 
L 178.958566 98.69835 
L 180.518667 99.533212 
L 182.078768 100.704879 
L 183.638869 102.18572 
L 185.198971 103.940597 
L 186.759072 105.927927 
L 189.879274 110.409415 
L 197.67978 122.176029 
L 200.799982 126.134467 
L 202.360083 127.818382 
L 203.920185 129.281598 
L 205.480286 130.515773 
L 207.040387 131.519827 
L 208.600488 132.299311 
L 210.160589 132.865588 
L 211.72069 133.23488 
L 213.280792 133.427278 
L 214.840893 133.465783 
L 217.961095 133.182819 
L 222.641399 132.26921 
L 225.761601 131.67476 
L 227.321702 131.47769 
L 228.881803 131.395211 
L 230.441905 131.467124 
L 232.002006 131.736866 
L 233.562107 132.251651 
L 235.122208 133.062301 
L 236.682309 134.222703 
L 238.24241 135.788884 
L 239.802512 137.817672 
L 241.362613 140.365016 
L 242.922714 143.483986 
L 244.482815 147.222568 
L 246.042916 151.621367 
L 247.603017 156.711321 
L 249.163119 162.511598 
L 250.72322 169.027775 
L 252.283321 176.250449 
L 253.843422 184.15437 
L 256.963625 201.824782 
L 260.083827 221.526243 
L 264.76413 253.281185 
L 269.444434 285.10828 
L 272.564636 304.978011 
L 275.684839 322.983521 
L 277.24494 331.139089 
L 278.805041 338.679364 
L 280.365142 345.584361 
L 281.925243 351.847649 
L 283.485344 357.475212 
L 285.045446 362.483994 
L 286.605547 366.900208 
L 288.165648 370.757527 
L 289.725749 374.095231 
L 291.28585 376.956411 
L 292.845952 379.38629 
L 294.406053 381.43072 
L 295.966154 383.134892 
L 297.526255 384.542275 
L 299.086356 385.693798 
L 300.646457 386.627262 
L 302.206559 387.376965 
L 303.76666 387.973521 
L 306.886862 388.811186 
L 310.007064 389.313458 
L 313.127267 389.603688 
L 313.127267 389.603688 
" clip-path="url(#pc93662df23)" style="fill: none; stroke: #1f77b4; stroke-width: 1.5; stroke-linecap: square"/>
   </g>
   <g id="patch_23">
    <path d="M 44.57 389.93875 
L 44.57 26.88 
" style="fill: none; stroke: #000000; stroke-width: 0.8; stroke-linejoin: miter; stroke-linecap: square"/>
   </g>
   <g id="patch_24">
    <path d="M 275.85 389.93875 
L 275.85 26.88 
" style="fill: none; stroke: #000000; stroke-width: 0.8; stroke-linejoin: miter; stroke-linecap: square"/>
   </g>
   <g id="patch_25">
    <path d="M 44.57 389.93875 
L 275.85 389.93875 
" style="fill: none; stroke: #000000; stroke-width: 0.8; stroke-linejoin: miter; stroke-linecap: square"/>
   </g>
   <g id="patch_26">
    <path d="M 44.57 26.88 
L 275.85 26.88 
" style="fill: none; stroke: #000000; stroke-width: 0.8; stroke-linejoin: miter; stroke-linecap: square"/>
   </g>
   <g id="text_14">
    <!-- Rozkład atrybutu Distance_km -->
    <g transform="translate(68.644375 20.88) scale(0.12 -0.12)">
     <defs>
      <path id="DejaVuSans-52" d="M 2841 2188 
Q 3044 2119 3236 1894 
Q 3428 1669 3622 1275 
L 4263 0 
L 3584 0 
L 2988 1197 
Q 2756 1666 2539 1819 
Q 2322 1972 1947 1972 
L 1259 1972 
L 1259 0 
L 628 0 
L 628 4666 
L 2053 4666 
Q 2853 4666 3247 4331 
Q 3641 3997 3641 3322 
Q 3641 2881 3436 2590 
Q 3231 2300 2841 2188 
z
M 1259 4147 
L 1259 2491 
L 2053 2491 
Q 2509 2491 2742 2702 
Q 2975 2913 2975 3322 
Q 2975 3731 2742 3939 
Q 2509 4147 2053 4147 
L 1259 4147 
z
" transform="scale(0.015625)"/>
      <path id="DejaVuSans-7a" d="M 353 3500 
L 3084 3500 
L 3084 2975 
L 922 459 
L 3084 459 
L 3084 0 
L 275 0 
L 275 525 
L 2438 3041 
L 353 3041 
L 353 3500 
z
" transform="scale(0.015625)"/>
      <path id="DejaVuSans-142" d="M 622 4863 
L 1197 4863 
L 1197 2981 
L 1588 3263 
L 1825 2931 
L 1197 2491 
L 1197 0 
L 622 0 
L 622 2081 
L 238 1806 
L 6 2138 
L 622 2578 
L 622 4863 
z
" transform="scale(0.015625)"/>
      <path id="DejaVuSans-64" d="M 2906 2969 
L 2906 4863 
L 3481 4863 
L 3481 0 
L 2906 0 
L 2906 525 
Q 2725 213 2448 61 
Q 2172 -91 1784 -91 
Q 1150 -91 751 415 
Q 353 922 353 1747 
Q 353 2572 751 3078 
Q 1150 3584 1784 3584 
Q 2172 3584 2448 3432 
Q 2725 3281 2906 2969 
z
M 947 1747 
Q 947 1113 1208 752 
Q 1469 391 1925 391 
Q 2381 391 2643 752 
Q 2906 1113 2906 1747 
Q 2906 2381 2643 2742 
Q 2381 3103 1925 3103 
Q 1469 3103 1208 2742 
Q 947 2381 947 1747 
z
" transform="scale(0.015625)"/>
      <path id="DejaVuSans-20" transform="scale(0.015625)"/>
      <path id="DejaVuSans-72" d="M 2631 2963 
Q 2534 3019 2420 3045 
Q 2306 3072 2169 3072 
Q 1681 3072 1420 2755 
Q 1159 2438 1159 1844 
L 1159 0 
L 581 0 
L 581 3500 
L 1159 3500 
L 1159 2956 
Q 1341 3275 1631 3429 
Q 1922 3584 2338 3584 
Q 2397 3584 2469 3576 
Q 2541 3569 2628 3553 
L 2631 2963 
z
" transform="scale(0.015625)"/>
      <path id="DejaVuSans-79" d="M 2059 -325 
Q 1816 -950 1584 -1140 
Q 1353 -1331 966 -1331 
L 506 -1331 
L 506 -850 
L 844 -850 
Q 1081 -850 1212 -737 
Q 1344 -625 1503 -206 
L 1606 56 
L 191 3500 
L 800 3500 
L 1894 763 
L 2988 3500 
L 3597 3500 
L 2059 -325 
z
" transform="scale(0.015625)"/>
      <path id="DejaVuSans-62" d="M 3116 1747 
Q 3116 2381 2855 2742 
Q 2594 3103 2138 3103 
Q 1681 3103 1420 2742 
Q 1159 2381 1159 1747 
Q 1159 1113 1420 752 
Q 1681 391 2138 391 
Q 2594 391 2855 752 
Q 3116 1113 3116 1747 
z
M 1159 2969 
Q 1341 3281 1617 3432 
Q 1894 3584 2278 3584 
Q 2916 3584 3314 3078 
Q 3713 2572 3713 1747 
Q 3713 922 3314 415 
Q 2916 -91 2278 -91 
Q 1894 -91 1617 61 
Q 1341 213 1159 525 
L 1159 0 
L 581 0 
L 581 4863 
L 1159 4863 
L 1159 2969 
z
" transform="scale(0.015625)"/>
     </defs>
     <use xlink:href="#DejaVuSans-52"/>
     <use xlink:href="#DejaVuSans-6f" transform="translate(64.982422 0)"/>
     <use xlink:href="#DejaVuSans-7a" transform="translate(126.164062 0)"/>
     <use xlink:href="#DejaVuSans-6b" transform="translate(178.654297 0)"/>
     <use xlink:href="#DejaVuSans-142" transform="translate(236.564453 0)"/>
     <use xlink:href="#DejaVuSans-61" transform="translate(264.982422 0)"/>
     <use xlink:href="#DejaVuSans-64" transform="translate(326.261719 0)"/>
     <use xlink:href="#DejaVuSans-20" transform="translate(389.738281 0)"/>
     <use xlink:href="#DejaVuSans-61" transform="translate(421.525391 0)"/>
     <use xlink:href="#DejaVuSans-74" transform="translate(482.804688 0)"/>
     <use xlink:href="#DejaVuSans-72" transform="translate(522.013672 0)"/>
     <use xlink:href="#DejaVuSans-79" transform="translate(563.126953 0)"/>
     <use xlink:href="#DejaVuSans-62" transform="translate(622.306641 0)"/>
     <use xlink:href="#DejaVuSans-75" transform="translate(685.783203 0)"/>
     <use xlink:href="#DejaVuSans-74" transform="translate(749.162109 0)"/>
     <use xlink:href="#DejaVuSans-75" transform="translate(788.371094 0)"/>
     <use xlink:href="#DejaVuSans-20" transform="translate(851.75 0)"/>
     <use xlink:href="#DejaVuSans-44" transform="translate(883.537109 0)"/>
     <use xlink:href="#DejaVuSans-69" transform="translate(960.539062 0)"/>
     <use xlink:href="#DejaVuSans-73" transform="translate(988.322266 0)"/>
     <use xlink:href="#DejaVuSans-74" transform="translate(1040.421875 0)"/>
     <use xlink:href="#DejaVuSans-61" transform="translate(1079.630859 0)"/>
     <use xlink:href="#DejaVuSans-6e" transform="translate(1140.910156 0)"/>
     <use xlink:href="#DejaVuSans-63" transform="translate(1204.289062 0)"/>
     <use xlink:href="#DejaVuSans-65" transform="translate(1259.269531 0)"/>
     <use xlink:href="#DejaVuSans-5f" transform="translate(1320.792969 0)"/>
     <use xlink:href="#DejaVuSans-6b" transform="translate(1370.792969 0)"/>
     <use xlink:href="#DejaVuSans-6d" transform="translate(1428.703125 0)"/>
    </g>
   </g>
  </g>
  <g id="axes_2">
   <g id="patch_27">
    <path d="M 333.02 389.93875 
L 564.3 389.93875 
L 564.3 26.88 
L 333.02 26.88 
z
" style="fill: #ffffff"/>
   </g>
   <g id="patch_28">
    <path d="M 341.915385 389.93875 
L 352.589846 389.93875 
L 352.589846 90.27121 
L 341.915385 90.27121 
z
" clip-path="url(#p926f62c2a7)" style="fill: #1f77b4; fill-opacity: 0.5; stroke: #ffffff; stroke-width: 0.895786; stroke-linejoin: miter"/>
   </g>
   <g id="patch_29">
    <path d="M 352.589846 389.93875 
L 363.264308 389.93875 
L 363.264308 233.189575 
L 352.589846 233.189575 
z
" clip-path="url(#p926f62c2a7)" style="fill: #1f77b4; fill-opacity: 0.5; stroke: #ffffff; stroke-width: 0.895786; stroke-linejoin: miter"/>
   </g>
   <g id="patch_30">
    <path d="M 363.264308 389.93875 
L 373.938769 389.93875 
L 373.938769 210.138226 
L 363.264308 210.138226 
z
" clip-path="url(#p926f62c2a7)" style="fill: #1f77b4; fill-opacity: 0.5; stroke: #ffffff; stroke-width: 0.895786; stroke-linejoin: miter"/>
   </g>
   <g id="patch_31">
    <path d="M 373.938769 389.93875 
L 384.613231 389.93875 
L 384.613231 210.138226 
L 373.938769 210.138226 
z
" clip-path="url(#p926f62c2a7)" style="fill: #1f77b4; fill-opacity: 0.5; stroke: #ffffff; stroke-width: 0.895786; stroke-linejoin: miter"/>
   </g>
   <g id="patch_32">
    <path d="M 384.613231 389.93875 
L 395.287692 389.93875 
L 395.287692 191.697147 
L 384.613231 191.697147 
z
" clip-path="url(#p926f62c2a7)" style="fill: #1f77b4; fill-opacity: 0.5; stroke: #ffffff; stroke-width: 0.895786; stroke-linejoin: miter"/>
   </g>
   <g id="patch_33">
    <path d="M 395.287692 389.93875 
L 405.962154 389.93875 
L 405.962154 62.609591 
L 395.287692 62.609591 
z
" clip-path="url(#p926f62c2a7)" style="fill: #1f77b4; fill-opacity: 0.5; stroke: #ffffff; stroke-width: 0.895786; stroke-linejoin: miter"/>
   </g>
   <g id="patch_34">
    <path d="M 405.962154 389.93875 
L 416.636615 389.93875 
L 416.636615 270.071734 
L 405.962154 270.071734 
z
" clip-path="url(#p926f62c2a7)" style="fill: #1f77b4; fill-opacity: 0.5; stroke: #ffffff; stroke-width: 0.895786; stroke-linejoin: miter"/>
   </g>
   <g id="patch_35">
    <path d="M 416.636615 389.93875 
L 427.311077 389.93875 
L 427.311077 168.645798 
L 416.636615 168.645798 
z
" clip-path="url(#p926f62c2a7)" style="fill: #1f77b4; fill-opacity: 0.5; stroke: #ffffff; stroke-width: 0.895786; stroke-linejoin: miter"/>
   </g>
   <g id="patch_36">
    <path d="M 427.311077 389.93875 
L 437.985538 389.93875 
L 437.985538 283.902544 
L 427.311077 283.902544 
z
" clip-path="url(#p926f62c2a7)" style="fill: #1f77b4; fill-opacity: 0.5; stroke: #ffffff; stroke-width: 0.895786; stroke-linejoin: miter"/>
   </g>
   <g id="patch_37">
    <path d="M 437.985538 389.93875 
L 448.66 389.93875 
L 448.66 196.307417 
L 437.985538 196.307417 
z
" clip-path="url(#p926f62c2a7)" style="fill: #1f77b4; fill-opacity: 0.5; stroke: #ffffff; stroke-width: 0.895786; stroke-linejoin: miter"/>
   </g>
   <g id="patch_38">
    <path d="M 448.66 389.93875 
L 459.334462 389.93875 
L 459.334462 94.88148 
L 448.66 94.88148 
z
" clip-path="url(#p926f62c2a7)" style="fill: #1f77b4; fill-opacity: 0.5; stroke: #ffffff; stroke-width: 0.895786; stroke-linejoin: miter"/>
   </g>
   <g id="patch_39">
    <path d="M 459.334462 389.93875 
L 470.008923 389.93875 
L 470.008923 237.799845 
L 459.334462 237.799845 
z
" clip-path="url(#p926f62c2a7)" style="fill: #1f77b4; fill-opacity: 0.5; stroke: #ffffff; stroke-width: 0.895786; stroke-linejoin: miter"/>
   </g>
   <g id="patch_40">
    <path d="M 470.008923 389.93875 
L 480.683385 389.93875 
L 480.683385 233.189575 
L 470.008923 233.189575 
z
" clip-path="url(#p926f62c2a7)" style="fill: #1f77b4; fill-opacity: 0.5; stroke: #ffffff; stroke-width: 0.895786; stroke-linejoin: miter"/>
   </g>
   <g id="patch_41">
    <path d="M 480.683385 389.93875 
L 491.357846 389.93875 
L 491.357846 233.189575 
L 480.683385 233.189575 
z
" clip-path="url(#p926f62c2a7)" style="fill: #1f77b4; fill-opacity: 0.5; stroke: #ffffff; stroke-width: 0.895786; stroke-linejoin: miter"/>
   </g>
   <g id="patch_42">
    <path d="M 491.357846 389.93875 
L 502.032308 389.93875 
L 502.032308 214.748496 
L 491.357846 214.748496 
z
" clip-path="url(#p926f62c2a7)" style="fill: #1f77b4; fill-opacity: 0.5; stroke: #ffffff; stroke-width: 0.895786; stroke-linejoin: miter"/>
   </g>
   <g id="patch_43">
    <path d="M 502.032308 389.93875 
L 512.706769 389.93875 
L 512.706769 94.88148 
L 502.032308 94.88148 
z
" clip-path="url(#p926f62c2a7)" style="fill: #1f77b4; fill-opacity: 0.5; stroke: #ffffff; stroke-width: 0.895786; stroke-linejoin: miter"/>
   </g>
   <g id="patch_44">
    <path d="M 512.706769 389.93875 
L 523.381231 389.93875 
L 523.381231 210.138226 
L 512.706769 210.138226 
z
" clip-path="url(#p926f62c2a7)" style="fill: #1f77b4; fill-opacity: 0.5; stroke: #ffffff; stroke-width: 0.895786; stroke-linejoin: miter"/>
   </g>
   <g id="patch_45">
    <path d="M 523.381231 389.93875 
L 534.055692 389.93875 
L 534.055692 219.358766 
L 523.381231 219.358766 
z
" clip-path="url(#p926f62c2a7)" style="fill: #1f77b4; fill-opacity: 0.5; stroke: #ffffff; stroke-width: 0.895786; stroke-linejoin: miter"/>
   </g>
   <g id="patch_46">
    <path d="M 534.055692 389.93875 
L 544.730154 389.93875 
L 544.730154 228.579306 
L 534.055692 228.579306 
z
" clip-path="url(#p926f62c2a7)" style="fill: #1f77b4; fill-opacity: 0.5; stroke: #ffffff; stroke-width: 0.895786; stroke-linejoin: miter"/>
   </g>
   <g id="patch_47">
    <path d="M 544.730154 389.93875 
L 555.404615 389.93875 
L 555.404615 44.168512 
L 544.730154 44.168512 
z
" clip-path="url(#p926f62c2a7)" style="fill: #1f77b4; fill-opacity: 0.5; stroke: #ffffff; stroke-width: 0.895786; stroke-linejoin: miter"/>
   </g>
   <g id="matplotlib.axis_3">
    <g id="xtick_6">
     <g id="line2d_13">
      <g>
       <use xlink:href="#mb72b07fc28" x="341.915385" y="389.93875" style="stroke: #000000; stroke-width: 0.8"/>
      </g>
     </g>
     <g id="text_15">
      <!-- 5 -->
      <g transform="translate(338.734135 404.537187) scale(0.1 -0.1)">
       <use xlink:href="#DejaVuSans-35"/>
      </g>
     </g>
    </g>
    <g id="xtick_7">
     <g id="line2d_14">
      <g>
       <use xlink:href="#mb72b07fc28" x="386.392308" y="389.93875" style="stroke: #000000; stroke-width: 0.8"/>
      </g>
     </g>
     <g id="text_16">
      <!-- 10 -->
      <g transform="translate(380.029808 404.537187) scale(0.1 -0.1)">
       <use xlink:href="#DejaVuSans-31"/>
       <use xlink:href="#DejaVuSans-30" transform="translate(63.623047 0)"/>
      </g>
     </g>
    </g>
    <g id="xtick_8">
     <g id="line2d_15">
      <g>
       <use xlink:href="#mb72b07fc28" x="430.869231" y="389.93875" style="stroke: #000000; stroke-width: 0.8"/>
      </g>
     </g>
     <g id="text_17">
      <!-- 15 -->
      <g transform="translate(424.506731 404.537187) scale(0.1 -0.1)">
       <use xlink:href="#DejaVuSans-31"/>
       <use xlink:href="#DejaVuSans-35" transform="translate(63.623047 0)"/>
      </g>
     </g>
    </g>
    <g id="xtick_9">
     <g id="line2d_16">
      <g>
       <use xlink:href="#mb72b07fc28" x="475.346154" y="389.93875" style="stroke: #000000; stroke-width: 0.8"/>
      </g>
     </g>
     <g id="text_18">
      <!-- 20 -->
      <g transform="translate(468.983654 404.537187) scale(0.1 -0.1)">
       <use xlink:href="#DejaVuSans-32"/>
       <use xlink:href="#DejaVuSans-30" transform="translate(63.623047 0)"/>
      </g>
     </g>
    </g>
    <g id="xtick_10">
     <g id="line2d_17">
      <g>
       <use xlink:href="#mb72b07fc28" x="519.823077" y="389.93875" style="stroke: #000000; stroke-width: 0.8"/>
      </g>
     </g>
     <g id="text_19">
      <!-- 25 -->
      <g transform="translate(513.460577 404.537187) scale(0.1 -0.1)">
       <use xlink:href="#DejaVuSans-32"/>
       <use xlink:href="#DejaVuSans-35" transform="translate(63.623047 0)"/>
      </g>
     </g>
    </g>
    <g id="xtick_11">
     <g id="line2d_18">
      <g>
       <use xlink:href="#mb72b07fc28" x="564.3" y="389.93875" style="stroke: #000000; stroke-width: 0.8"/>
      </g>
     </g>
     <g id="text_20">
      <!-- 30 -->
      <g transform="translate(557.9375 404.537187) scale(0.1 -0.1)">
       <use xlink:href="#DejaVuSans-33"/>
       <use xlink:href="#DejaVuSans-30" transform="translate(63.623047 0)"/>
      </g>
     </g>
    </g>
    <g id="text_21">
     <!-- Preparation_Time_min -->
     <g transform="translate(393.11625 418.215312) scale(0.1 -0.1)">
      <defs>
       <path id="DejaVuSans-50" d="M 1259 4147 
L 1259 2394 
L 2053 2394 
Q 2494 2394 2734 2622 
Q 2975 2850 2975 3272 
Q 2975 3691 2734 3919 
Q 2494 4147 2053 4147 
L 1259 4147 
z
M 628 4666 
L 2053 4666 
Q 2838 4666 3239 4311 
Q 3641 3956 3641 3272 
Q 3641 2581 3239 2228 
Q 2838 1875 2053 1875 
L 1259 1875 
L 1259 0 
L 628 0 
L 628 4666 
z
" transform="scale(0.015625)"/>
       <path id="DejaVuSans-70" d="M 1159 525 
L 1159 -1331 
L 581 -1331 
L 581 3500 
L 1159 3500 
L 1159 2969 
Q 1341 3281 1617 3432 
Q 1894 3584 2278 3584 
Q 2916 3584 3314 3078 
Q 3713 2572 3713 1747 
Q 3713 922 3314 415 
Q 2916 -91 2278 -91 
Q 1894 -91 1617 61 
Q 1341 213 1159 525 
z
M 3116 1747 
Q 3116 2381 2855 2742 
Q 2594 3103 2138 3103 
Q 1681 3103 1420 2742 
Q 1159 2381 1159 1747 
Q 1159 1113 1420 752 
Q 1681 391 2138 391 
Q 2594 391 2855 752 
Q 3116 1113 3116 1747 
z
" transform="scale(0.015625)"/>
       <path id="DejaVuSans-54" d="M -19 4666 
L 3928 4666 
L 3928 4134 
L 2272 4134 
L 2272 0 
L 1638 0 
L 1638 4134 
L -19 4134 
L -19 4666 
z
" transform="scale(0.015625)"/>
      </defs>
      <use xlink:href="#DejaVuSans-50"/>
      <use xlink:href="#DejaVuSans-72" transform="translate(58.552734 0)"/>
      <use xlink:href="#DejaVuSans-65" transform="translate(97.416016 0)"/>
      <use xlink:href="#DejaVuSans-70" transform="translate(158.939453 0)"/>
      <use xlink:href="#DejaVuSans-61" transform="translate(222.416016 0)"/>
      <use xlink:href="#DejaVuSans-72" transform="translate(283.695312 0)"/>
      <use xlink:href="#DejaVuSans-61" transform="translate(324.808594 0)"/>
      <use xlink:href="#DejaVuSans-74" transform="translate(386.087891 0)"/>
      <use xlink:href="#DejaVuSans-69" transform="translate(425.296875 0)"/>
      <use xlink:href="#DejaVuSans-6f" transform="translate(453.080078 0)"/>
      <use xlink:href="#DejaVuSans-6e" transform="translate(514.261719 0)"/>
      <use xlink:href="#DejaVuSans-5f" transform="translate(577.640625 0)"/>
      <use xlink:href="#DejaVuSans-54" transform="translate(627.640625 0)"/>
      <use xlink:href="#DejaVuSans-69" transform="translate(685.599609 0)"/>
      <use xlink:href="#DejaVuSans-6d" transform="translate(713.382812 0)"/>
      <use xlink:href="#DejaVuSans-65" transform="translate(810.794922 0)"/>
      <use xlink:href="#DejaVuSans-5f" transform="translate(872.318359 0)"/>
      <use xlink:href="#DejaVuSans-6d" transform="translate(922.318359 0)"/>
      <use xlink:href="#DejaVuSans-69" transform="translate(1019.730469 0)"/>
      <use xlink:href="#DejaVuSans-6e" transform="translate(1047.513672 0)"/>
     </g>
    </g>
   </g>
   <g id="matplotlib.axis_4">
    <g id="ytick_7">
     <g id="line2d_19">
      <g>
       <use xlink:href="#m854f36a99e" x="333.02" y="389.93875" style="stroke: #000000; stroke-width: 0.8"/>
      </g>
     </g>
     <g id="text_22">
      <!-- 0 -->
      <g transform="translate(319.6575 393.737969) scale(0.1 -0.1)">
       <use xlink:href="#DejaVuSans-30"/>
      </g>
     </g>
    </g>
    <g id="ytick_8">
     <g id="line2d_20">
      <g>
       <use xlink:href="#m854f36a99e" x="333.02" y="343.836052" style="stroke: #000000; stroke-width: 0.8"/>
      </g>
     </g>
     <g id="text_23">
      <!-- 10 -->
      <g transform="translate(313.295 347.63527) scale(0.1 -0.1)">
       <use xlink:href="#DejaVuSans-31"/>
       <use xlink:href="#DejaVuSans-30" transform="translate(63.623047 0)"/>
      </g>
     </g>
    </g>
    <g id="ytick_9">
     <g id="line2d_21">
      <g>
       <use xlink:href="#m854f36a99e" x="333.02" y="297.733353" style="stroke: #000000; stroke-width: 0.8"/>
      </g>
     </g>
     <g id="text_24">
      <!-- 20 -->
      <g transform="translate(313.295 301.532572) scale(0.1 -0.1)">
       <use xlink:href="#DejaVuSans-32"/>
       <use xlink:href="#DejaVuSans-30" transform="translate(63.623047 0)"/>
      </g>
     </g>
    </g>
    <g id="ytick_10">
     <g id="line2d_22">
      <g>
       <use xlink:href="#m854f36a99e" x="333.02" y="251.630655" style="stroke: #000000; stroke-width: 0.8"/>
      </g>
     </g>
     <g id="text_25">
      <!-- 30 -->
      <g transform="translate(313.295 255.429874) scale(0.1 -0.1)">
       <use xlink:href="#DejaVuSans-33"/>
       <use xlink:href="#DejaVuSans-30" transform="translate(63.623047 0)"/>
      </g>
     </g>
    </g>
    <g id="ytick_11">
     <g id="line2d_23">
      <g>
       <use xlink:href="#m854f36a99e" x="333.02" y="205.527956" style="stroke: #000000; stroke-width: 0.8"/>
      </g>
     </g>
     <g id="text_26">
      <!-- 40 -->
      <g transform="translate(313.295 209.327175) scale(0.1 -0.1)">
       <use xlink:href="#DejaVuSans-34"/>
       <use xlink:href="#DejaVuSans-30" transform="translate(63.623047 0)"/>
      </g>
     </g>
    </g>
    <g id="ytick_12">
     <g id="line2d_24">
      <g>
       <use xlink:href="#m854f36a99e" x="333.02" y="159.425258" style="stroke: #000000; stroke-width: 0.8"/>
      </g>
     </g>
     <g id="text_27">
      <!-- 50 -->
      <g transform="translate(313.295 163.224477) scale(0.1 -0.1)">
       <use xlink:href="#DejaVuSans-35"/>
       <use xlink:href="#DejaVuSans-30" transform="translate(63.623047 0)"/>
      </g>
     </g>
    </g>
    <g id="ytick_13">
     <g id="line2d_25">
      <g>
       <use xlink:href="#m854f36a99e" x="333.02" y="113.32256" style="stroke: #000000; stroke-width: 0.8"/>
      </g>
     </g>
     <g id="text_28">
      <!-- 60 -->
      <g transform="translate(313.295 117.121778) scale(0.1 -0.1)">
       <defs>
        <path id="DejaVuSans-36" d="M 2113 2584 
Q 1688 2584 1439 2293 
Q 1191 2003 1191 1497 
Q 1191 994 1439 701 
Q 1688 409 2113 409 
Q 2538 409 2786 701 
Q 3034 994 3034 1497 
Q 3034 2003 2786 2293 
Q 2538 2584 2113 2584 
z
M 3366 4563 
L 3366 3988 
Q 3128 4100 2886 4159 
Q 2644 4219 2406 4219 
Q 1781 4219 1451 3797 
Q 1122 3375 1075 2522 
Q 1259 2794 1537 2939 
Q 1816 3084 2150 3084 
Q 2853 3084 3261 2657 
Q 3669 2231 3669 1497 
Q 3669 778 3244 343 
Q 2819 -91 2113 -91 
Q 1303 -91 875 529 
Q 447 1150 447 2328 
Q 447 3434 972 4092 
Q 1497 4750 2381 4750 
Q 2619 4750 2861 4703 
Q 3103 4656 3366 4563 
z
" transform="scale(0.015625)"/>
       </defs>
       <use xlink:href="#DejaVuSans-36"/>
       <use xlink:href="#DejaVuSans-30" transform="translate(63.623047 0)"/>
      </g>
     </g>
    </g>
    <g id="ytick_14">
     <g id="line2d_26">
      <g>
       <use xlink:href="#m854f36a99e" x="333.02" y="67.219861" style="stroke: #000000; stroke-width: 0.8"/>
      </g>
     </g>
     <g id="text_29">
      <!-- 70 -->
      <g transform="translate(313.295 71.01908) scale(0.1 -0.1)">
       <defs>
        <path id="DejaVuSans-37" d="M 525 4666 
L 3525 4666 
L 3525 4397 
L 1831 0 
L 1172 0 
L 2766 4134 
L 525 4134 
L 525 4666 
z
" transform="scale(0.015625)"/>
       </defs>
       <use xlink:href="#DejaVuSans-37"/>
       <use xlink:href="#DejaVuSans-30" transform="translate(63.623047 0)"/>
      </g>
     </g>
    </g>
    <g id="text_30">
     <!-- Count -->
     <g transform="translate(307.215312 223.257812) rotate(-90) scale(0.1 -0.1)">
      <use xlink:href="#DejaVuSans-43"/>
      <use xlink:href="#DejaVuSans-6f" transform="translate(69.824219 0)"/>
      <use xlink:href="#DejaVuSans-75" transform="translate(131.005859 0)"/>
      <use xlink:href="#DejaVuSans-6e" transform="translate(194.384766 0)"/>
      <use xlink:href="#DejaVuSans-74" transform="translate(257.763672 0)"/>
     </g>
    </g>
   </g>
   <g id="line2d_27">
    <path d="M 292.022057 389.475641 
L 295.170559 389.115698 
L 298.31906 388.523602 
L 301.467561 387.584003 
L 303.041812 386.938024 
L 304.616063 386.145512 
L 306.190313 385.181916 
L 307.764564 384.02076 
L 309.338815 382.634021 
L 310.913065 380.992628 
L 312.487316 379.067104 
L 314.061567 376.828338 
L 315.635818 374.248469 
L 317.210068 371.301862 
L 318.784319 367.966139 
L 320.35857 364.223234 
L 321.93282 360.060412 
L 323.507071 355.4712 
L 325.081322 350.456198 
L 326.655572 345.023683 
L 329.804074 332.979652 
L 332.952575 319.566496 
L 336.101076 305.129286 
L 347.120831 253.0762 
L 350.269332 239.617787 
L 353.417834 227.410565 
L 356.566335 216.625853 
L 358.140586 211.791689 
L 359.714837 207.331624 
L 361.289087 203.241607 
L 362.863338 199.514311 
L 364.437589 196.140097 
L 366.011839 193.107913 
L 367.58609 190.406076 
L 369.160341 188.022914 
L 370.734591 185.947223 
L 372.308842 184.16854 
L 373.883093 182.677218 
L 375.457343 181.464328 
L 377.031594 180.521401 
L 378.605845 179.840043 
L 380.180095 179.411468 
L 381.754346 179.225988 
L 383.328597 179.272509 
L 384.902847 179.538072 
L 386.477098 180.007493 
L 388.051349 180.663125 
L 389.625599 181.484776 
L 392.774101 183.533343 
L 395.922602 185.948401 
L 402.219605 190.991874 
L 405.368106 193.214786 
L 408.516608 195.039734 
L 411.665109 196.395185 
L 414.81361 197.276572 
L 417.962112 197.73835 
L 421.110613 197.878687 
L 425.833365 197.758674 
L 430.556117 197.624943 
L 433.704619 197.711813 
L 436.85312 198.029896 
L 440.001621 198.617143 
L 443.150123 199.470919 
L 446.298624 200.546589 
L 457.318379 204.648196 
L 460.46688 205.436588 
L 463.615381 205.888476 
L 466.763883 205.976283 
L 469.912384 205.719858 
L 473.060886 205.179698 
L 477.783638 204.030465 
L 487.229142 201.557616 
L 493.526144 200.189338 
L 499.823147 198.825819 
L 504.545899 197.592773 
L 510.842902 195.633611 
L 515.565654 194.195876 
L 518.714155 193.480805 
L 520.288406 193.258518 
L 521.862657 193.158311 
L 523.436907 193.206063 
L 525.011158 193.429011 
L 526.585409 193.855569 
L 528.159659 194.515115 
L 529.73391 195.437721 
L 531.308161 196.653797 
L 532.882411 198.193633 
L 534.456662 200.086817 
L 536.030913 202.361523 
L 537.605163 205.043677 
L 539.179414 208.156008 
L 540.753665 211.717022 
L 542.327915 215.739936 
L 543.902166 220.231635 
L 545.476417 225.1917 
L 547.050668 230.61159 
L 550.199169 242.75266 
L 553.34767 256.407859 
L 556.496172 271.192443 
L 565.941676 317.103887 
L 569.090177 331.101272 
L 572.238678 343.689245 
L 573.812929 349.36514 
L 575.38718 354.599958 
L 576.96143 359.383633 
L 578.535681 363.714916 
L 580.109932 367.600604 
L 581.684182 371.054569 
L 583.258433 374.096631 
L 584.832684 376.751361 
L 586.406935 379.046858 
L 587.981185 381.01356 
L 589.555436 382.683142 
L 591.129687 384.087525 
L 592.703937 385.258034 
L 594.278188 386.224698 
L 595.852439 387.015722 
L 597.426689 387.657109 
L 600.575191 388.582647 
L 603.723692 389.159189 
L 605.297943 389.355091 
L 605.297943 389.355091 
" clip-path="url(#p926f62c2a7)" style="fill: none; stroke: #1f77b4; stroke-width: 1.5; stroke-linecap: square"/>
   </g>
   <g id="patch_48">
    <path d="M 333.02 389.93875 
L 333.02 26.88 
" style="fill: none; stroke: #000000; stroke-width: 0.8; stroke-linejoin: miter; stroke-linecap: square"/>
   </g>
   <g id="patch_49">
    <path d="M 564.3 389.93875 
L 564.3 26.88 
" style="fill: none; stroke: #000000; stroke-width: 0.8; stroke-linejoin: miter; stroke-linecap: square"/>
   </g>
   <g id="patch_50">
    <path d="M 333.02 389.93875 
L 564.3 389.93875 
" style="fill: none; stroke: #000000; stroke-width: 0.8; stroke-linejoin: miter; stroke-linecap: square"/>
   </g>
   <g id="patch_51">
    <path d="M 333.02 26.88 
L 564.3 26.88 
" style="fill: none; stroke: #000000; stroke-width: 0.8; stroke-linejoin: miter; stroke-linecap: square"/>
   </g>
   <g id="text_31">
    <!-- Rozkład atrybutu Preparation_Time_min -->
    <g transform="translate(328.995625 20.88) scale(0.12 -0.12)">
     <use xlink:href="#DejaVuSans-52"/>
     <use xlink:href="#DejaVuSans-6f" transform="translate(64.982422 0)"/>
     <use xlink:href="#DejaVuSans-7a" transform="translate(126.164062 0)"/>
     <use xlink:href="#DejaVuSans-6b" transform="translate(178.654297 0)"/>
     <use xlink:href="#DejaVuSans-142" transform="translate(236.564453 0)"/>
     <use xlink:href="#DejaVuSans-61" transform="translate(264.982422 0)"/>
     <use xlink:href="#DejaVuSans-64" transform="translate(326.261719 0)"/>
     <use xlink:href="#DejaVuSans-20" transform="translate(389.738281 0)"/>
     <use xlink:href="#DejaVuSans-61" transform="translate(421.525391 0)"/>
     <use xlink:href="#DejaVuSans-74" transform="translate(482.804688 0)"/>
     <use xlink:href="#DejaVuSans-72" transform="translate(522.013672 0)"/>
     <use xlink:href="#DejaVuSans-79" transform="translate(563.126953 0)"/>
     <use xlink:href="#DejaVuSans-62" transform="translate(622.306641 0)"/>
     <use xlink:href="#DejaVuSans-75" transform="translate(685.783203 0)"/>
     <use xlink:href="#DejaVuSans-74" transform="translate(749.162109 0)"/>
     <use xlink:href="#DejaVuSans-75" transform="translate(788.371094 0)"/>
     <use xlink:href="#DejaVuSans-20" transform="translate(851.75 0)"/>
     <use xlink:href="#DejaVuSans-50" transform="translate(883.537109 0)"/>
     <use xlink:href="#DejaVuSans-72" transform="translate(942.089844 0)"/>
     <use xlink:href="#DejaVuSans-65" transform="translate(980.953125 0)"/>
     <use xlink:href="#DejaVuSans-70" transform="translate(1042.476562 0)"/>
     <use xlink:href="#DejaVuSans-61" transform="translate(1105.953125 0)"/>
     <use xlink:href="#DejaVuSans-72" transform="translate(1167.232422 0)"/>
     <use xlink:href="#DejaVuSans-61" transform="translate(1208.345703 0)"/>
     <use xlink:href="#DejaVuSans-74" transform="translate(1269.625 0)"/>
     <use xlink:href="#DejaVuSans-69" transform="translate(1308.833984 0)"/>
     <use xlink:href="#DejaVuSans-6f" transform="translate(1336.617188 0)"/>
     <use xlink:href="#DejaVuSans-6e" transform="translate(1397.798828 0)"/>
     <use xlink:href="#DejaVuSans-5f" transform="translate(1461.177734 0)"/>
     <use xlink:href="#DejaVuSans-54" transform="translate(1511.177734 0)"/>
     <use xlink:href="#DejaVuSans-69" transform="translate(1569.136719 0)"/>
     <use xlink:href="#DejaVuSans-6d" transform="translate(1596.919922 0)"/>
     <use xlink:href="#DejaVuSans-65" transform="translate(1694.332031 0)"/>
     <use xlink:href="#DejaVuSans-5f" transform="translate(1755.855469 0)"/>
     <use xlink:href="#DejaVuSans-6d" transform="translate(1805.855469 0)"/>
     <use xlink:href="#DejaVuSans-69" transform="translate(1903.267578 0)"/>
     <use xlink:href="#DejaVuSans-6e" transform="translate(1931.050781 0)"/>
    </g>
   </g>
  </g>
  <g id="axes_3">
   <g id="patch_52">
    <path d="M 621.47 389.93875 
L 852.75 389.93875 
L 852.75 26.88 
L 621.47 26.88 
z
" style="fill: #ffffff"/>
   </g>
   <g id="patch_53">
    <path d="M 621.47 389.93875 
L 633.034 389.93875 
L 633.034 111.308364 
L 621.47 111.308364 
z
" clip-path="url(#pceb6d54356)" style="fill: #1f77b4; fill-opacity: 0.5; stroke: #ffffff; stroke-width: 0.970435; stroke-linejoin: miter"/>
   </g>
   <g id="patch_54">
    <path d="M 633.034 389.93875 
L 644.598 389.93875 
L 644.598 389.93875 
L 633.034 389.93875 
z
" clip-path="url(#pceb6d54356)" style="fill: #1f77b4; fill-opacity: 0.5; stroke: #ffffff; stroke-width: 0.970435; stroke-linejoin: miter"/>
   </g>
   <g id="patch_55">
    <path d="M 644.598 389.93875 
L 656.162 389.93875 
L 656.162 81.095431 
L 644.598 81.095431 
z
" clip-path="url(#pceb6d54356)" style="fill: #1f77b4; fill-opacity: 0.5; stroke: #ffffff; stroke-width: 0.970435; stroke-linejoin: miter"/>
   </g>
   <g id="patch_56">
    <path d="M 656.162 389.93875 
L 667.726 389.93875 
L 667.726 389.93875 
L 656.162 389.93875 
z
" clip-path="url(#pceb6d54356)" style="fill: #1f77b4; fill-opacity: 0.5; stroke: #ffffff; stroke-width: 0.970435; stroke-linejoin: miter"/>
   </g>
   <g id="patch_57">
    <path d="M 667.726 389.93875 
L 679.29 389.93875 
L 679.29 84.452423 
L 667.726 84.452423 
z
" clip-path="url(#pceb6d54356)" style="fill: #1f77b4; fill-opacity: 0.5; stroke: #ffffff; stroke-width: 0.970435; stroke-linejoin: miter"/>
   </g>
   <g id="patch_58">
    <path d="M 679.29 389.93875 
L 690.854 389.93875 
L 690.854 389.93875 
L 679.29 389.93875 
z
" clip-path="url(#pceb6d54356)" style="fill: #1f77b4; fill-opacity: 0.5; stroke: #ffffff; stroke-width: 0.970435; stroke-linejoin: miter"/>
   </g>
   <g id="patch_59">
    <path d="M 690.854 389.93875 
L 702.418 389.93875 
L 702.418 154.949268 
L 690.854 154.949268 
z
" clip-path="url(#pceb6d54356)" style="fill: #1f77b4; fill-opacity: 0.5; stroke: #ffffff; stroke-width: 0.970435; stroke-linejoin: miter"/>
   </g>
   <g id="patch_60">
    <path d="M 702.418 389.93875 
L 713.982 389.93875 
L 713.982 389.93875 
L 702.418 389.93875 
z
" clip-path="url(#pceb6d54356)" style="fill: #1f77b4; fill-opacity: 0.5; stroke: #ffffff; stroke-width: 0.970435; stroke-linejoin: miter"/>
   </g>
   <g id="patch_61">
    <path d="M 713.982 389.93875 
L 725.546 389.93875 
L 725.546 114.665357 
L 713.982 114.665357 
z
" clip-path="url(#pceb6d54356)" style="fill: #1f77b4; fill-opacity: 0.5; stroke: #ffffff; stroke-width: 0.970435; stroke-linejoin: miter"/>
   </g>
   <g id="patch_62">
    <path d="M 725.546 389.93875 
L 737.11 389.93875 
L 737.11 389.93875 
L 725.546 389.93875 
z
" clip-path="url(#pceb6d54356)" style="fill: #1f77b4; fill-opacity: 0.5; stroke: #ffffff; stroke-width: 0.970435; stroke-linejoin: miter"/>
   </g>
   <g id="patch_63">
    <path d="M 737.11 389.93875 
L 748.674 389.93875 
L 748.674 389.93875 
L 737.11 389.93875 
z
" clip-path="url(#pceb6d54356)" style="fill: #1f77b4; fill-opacity: 0.5; stroke: #ffffff; stroke-width: 0.970435; stroke-linejoin: miter"/>
   </g>
   <g id="patch_64">
    <path d="M 748.674 389.93875 
L 760.238 389.93875 
L 760.238 111.308364 
L 748.674 111.308364 
z
" clip-path="url(#pceb6d54356)" style="fill: #1f77b4; fill-opacity: 0.5; stroke: #ffffff; stroke-width: 0.970435; stroke-linejoin: miter"/>
   </g>
   <g id="patch_65">
    <path d="M 760.238 389.93875 
L 771.802 389.93875 
L 771.802 389.93875 
L 760.238 389.93875 
z
" clip-path="url(#pceb6d54356)" style="fill: #1f77b4; fill-opacity: 0.5; stroke: #ffffff; stroke-width: 0.970435; stroke-linejoin: miter"/>
   </g>
   <g id="patch_66">
    <path d="M 771.802 389.93875 
L 783.366 389.93875 
L 783.366 44.168512 
L 771.802 44.168512 
z
" clip-path="url(#pceb6d54356)" style="fill: #1f77b4; fill-opacity: 0.5; stroke: #ffffff; stroke-width: 0.970435; stroke-linejoin: miter"/>
   </g>
   <g id="patch_67">
    <path d="M 783.366 389.93875 
L 794.93 389.93875 
L 794.93 389.93875 
L 783.366 389.93875 
z
" clip-path="url(#pceb6d54356)" style="fill: #1f77b4; fill-opacity: 0.5; stroke: #ffffff; stroke-width: 0.970435; stroke-linejoin: miter"/>
   </g>
   <g id="patch_68">
    <path d="M 794.93 389.93875 
L 806.494 389.93875 
L 806.494 114.665357 
L 794.93 114.665357 
z
" clip-path="url(#pceb6d54356)" style="fill: #1f77b4; fill-opacity: 0.5; stroke: #ffffff; stroke-width: 0.970435; stroke-linejoin: miter"/>
   </g>
   <g id="patch_69">
    <path d="M 806.494 389.93875 
L 818.058 389.93875 
L 818.058 389.93875 
L 806.494 389.93875 
z
" clip-path="url(#pceb6d54356)" style="fill: #1f77b4; fill-opacity: 0.5; stroke: #ffffff; stroke-width: 0.970435; stroke-linejoin: miter"/>
   </g>
   <g id="patch_70">
    <path d="M 818.058 389.93875 
L 829.622 389.93875 
L 829.622 71.024453 
L 818.058 71.024453 
z
" clip-path="url(#pceb6d54356)" style="fill: #1f77b4; fill-opacity: 0.5; stroke: #ffffff; stroke-width: 0.970435; stroke-linejoin: miter"/>
   </g>
   <g id="patch_71">
    <path d="M 829.622 389.93875 
L 841.186 389.93875 
L 841.186 389.93875 
L 829.622 389.93875 
z
" clip-path="url(#pceb6d54356)" style="fill: #1f77b4; fill-opacity: 0.5; stroke: #ffffff; stroke-width: 0.970435; stroke-linejoin: miter"/>
   </g>
   <g id="patch_72">
    <path d="M 841.186 389.93875 
L 852.75 389.93875 
L 852.75 47.525505 
L 841.186 47.525505 
z
" clip-path="url(#pceb6d54356)" style="fill: #1f77b4; fill-opacity: 0.5; stroke: #ffffff; stroke-width: 0.970435; stroke-linejoin: miter"/>
   </g>
   <g id="matplotlib.axis_5">
    <g id="xtick_12">
     <g id="line2d_28">
      <g>
       <use xlink:href="#mb72b07fc28" x="621.47" y="389.93875" style="stroke: #000000; stroke-width: 0.8"/>
      </g>
     </g>
     <g id="text_32">
      <!-- 0 -->
      <g transform="translate(618.28875 404.537187) scale(0.1 -0.1)">
       <use xlink:href="#DejaVuSans-30"/>
      </g>
     </g>
    </g>
    <g id="xtick_13">
     <g id="line2d_29">
      <g>
       <use xlink:href="#mb72b07fc28" x="672.865556" y="389.93875" style="stroke: #000000; stroke-width: 0.8"/>
      </g>
     </g>
     <g id="text_33">
      <!-- 2 -->
      <g transform="translate(669.684306 404.537187) scale(0.1 -0.1)">
       <use xlink:href="#DejaVuSans-32"/>
      </g>
     </g>
    </g>
    <g id="xtick_14">
     <g id="line2d_30">
      <g>
       <use xlink:href="#mb72b07fc28" x="724.261111" y="389.93875" style="stroke: #000000; stroke-width: 0.8"/>
      </g>
     </g>
     <g id="text_34">
      <!-- 4 -->
      <g transform="translate(721.079861 404.537187) scale(0.1 -0.1)">
       <use xlink:href="#DejaVuSans-34"/>
      </g>
     </g>
    </g>
    <g id="xtick_15">
     <g id="line2d_31">
      <g>
       <use xlink:href="#mb72b07fc28" x="775.656667" y="389.93875" style="stroke: #000000; stroke-width: 0.8"/>
      </g>
     </g>
     <g id="text_35">
      <!-- 6 -->
      <g transform="translate(772.475417 404.537187) scale(0.1 -0.1)">
       <use xlink:href="#DejaVuSans-36"/>
      </g>
     </g>
    </g>
    <g id="xtick_16">
     <g id="line2d_32">
      <g>
       <use xlink:href="#mb72b07fc28" x="827.052222" y="389.93875" style="stroke: #000000; stroke-width: 0.8"/>
      </g>
     </g>
     <g id="text_36">
      <!-- 8 -->
      <g transform="translate(823.870972 404.537187) scale(0.1 -0.1)">
       <defs>
        <path id="DejaVuSans-38" d="M 2034 2216 
Q 1584 2216 1326 1975 
Q 1069 1734 1069 1313 
Q 1069 891 1326 650 
Q 1584 409 2034 409 
Q 2484 409 2743 651 
Q 3003 894 3003 1313 
Q 3003 1734 2745 1975 
Q 2488 2216 2034 2216 
z
M 1403 2484 
Q 997 2584 770 2862 
Q 544 3141 544 3541 
Q 544 4100 942 4425 
Q 1341 4750 2034 4750 
Q 2731 4750 3128 4425 
Q 3525 4100 3525 3541 
Q 3525 3141 3298 2862 
Q 3072 2584 2669 2484 
Q 3125 2378 3379 2068 
Q 3634 1759 3634 1313 
Q 3634 634 3220 271 
Q 2806 -91 2034 -91 
Q 1263 -91 848 271 
Q 434 634 434 1313 
Q 434 1759 690 2068 
Q 947 2378 1403 2484 
z
M 1172 3481 
Q 1172 3119 1398 2916 
Q 1625 2713 2034 2713 
Q 2441 2713 2670 2916 
Q 2900 3119 2900 3481 
Q 2900 3844 2670 4047 
Q 2441 4250 2034 4250 
Q 1625 4250 1398 4047 
Q 1172 3844 1172 3481 
z
" transform="scale(0.015625)"/>
       </defs>
       <use xlink:href="#DejaVuSans-38"/>
      </g>
     </g>
    </g>
    <g id="text_37">
     <!-- Courier_Experience_yrs -->
     <g transform="translate(678.309219 418.215312) scale(0.1 -0.1)">
      <defs>
       <path id="DejaVuSans-45" d="M 628 4666 
L 3578 4666 
L 3578 4134 
L 1259 4134 
L 1259 2753 
L 3481 2753 
L 3481 2222 
L 1259 2222 
L 1259 531 
L 3634 531 
L 3634 0 
L 628 0 
L 628 4666 
z
" transform="scale(0.015625)"/>
       <path id="DejaVuSans-78" d="M 3513 3500 
L 2247 1797 
L 3578 0 
L 2900 0 
L 1881 1375 
L 863 0 
L 184 0 
L 1544 1831 
L 300 3500 
L 978 3500 
L 1906 2253 
L 2834 3500 
L 3513 3500 
z
" transform="scale(0.015625)"/>
      </defs>
      <use xlink:href="#DejaVuSans-43"/>
      <use xlink:href="#DejaVuSans-6f" transform="translate(69.824219 0)"/>
      <use xlink:href="#DejaVuSans-75" transform="translate(131.005859 0)"/>
      <use xlink:href="#DejaVuSans-72" transform="translate(194.384766 0)"/>
      <use xlink:href="#DejaVuSans-69" transform="translate(235.498047 0)"/>
      <use xlink:href="#DejaVuSans-65" transform="translate(263.28125 0)"/>
      <use xlink:href="#DejaVuSans-72" transform="translate(324.804688 0)"/>
      <use xlink:href="#DejaVuSans-5f" transform="translate(365.917969 0)"/>
      <use xlink:href="#DejaVuSans-45" transform="translate(415.917969 0)"/>
      <use xlink:href="#DejaVuSans-78" transform="translate(479.101562 0)"/>
      <use xlink:href="#DejaVuSans-70" transform="translate(538.28125 0)"/>
      <use xlink:href="#DejaVuSans-65" transform="translate(601.757812 0)"/>
      <use xlink:href="#DejaVuSans-72" transform="translate(663.28125 0)"/>
      <use xlink:href="#DejaVuSans-69" transform="translate(704.394531 0)"/>
      <use xlink:href="#DejaVuSans-65" transform="translate(732.177734 0)"/>
      <use xlink:href="#DejaVuSans-6e" transform="translate(793.701172 0)"/>
      <use xlink:href="#DejaVuSans-63" transform="translate(857.080078 0)"/>
      <use xlink:href="#DejaVuSans-65" transform="translate(912.060547 0)"/>
      <use xlink:href="#DejaVuSans-5f" transform="translate(973.583984 0)"/>
      <use xlink:href="#DejaVuSans-79" transform="translate(1023.583984 0)"/>
      <use xlink:href="#DejaVuSans-72" transform="translate(1082.763672 0)"/>
      <use xlink:href="#DejaVuSans-73" transform="translate(1123.876953 0)"/>
     </g>
    </g>
   </g>
   <g id="matplotlib.axis_6">
    <g id="ytick_15">
     <g id="line2d_33">
      <g>
       <use xlink:href="#m854f36a99e" x="621.47" y="389.93875" style="stroke: #000000; stroke-width: 0.8"/>
      </g>
     </g>
     <g id="text_38">
      <!-- 0 -->
      <g transform="translate(608.1075 393.737969) scale(0.1 -0.1)">
       <use xlink:href="#DejaVuSans-30"/>
      </g>
     </g>
    </g>
    <g id="ytick_16">
     <g id="line2d_34">
      <g>
       <use xlink:href="#m854f36a99e" x="621.47" y="322.798898" style="stroke: #000000; stroke-width: 0.8"/>
      </g>
     </g>
     <g id="text_39">
      <!-- 20 -->
      <g transform="translate(601.745 326.598117) scale(0.1 -0.1)">
       <use xlink:href="#DejaVuSans-32"/>
       <use xlink:href="#DejaVuSans-30" transform="translate(63.623047 0)"/>
      </g>
     </g>
    </g>
    <g id="ytick_17">
     <g id="line2d_35">
      <g>
       <use xlink:href="#m854f36a99e" x="621.47" y="255.659046" style="stroke: #000000; stroke-width: 0.8"/>
      </g>
     </g>
     <g id="text_40">
      <!-- 40 -->
      <g transform="translate(601.745 259.458265) scale(0.1 -0.1)">
       <use xlink:href="#DejaVuSans-34"/>
       <use xlink:href="#DejaVuSans-30" transform="translate(63.623047 0)"/>
      </g>
     </g>
    </g>
    <g id="ytick_18">
     <g id="line2d_36">
      <g>
       <use xlink:href="#m854f36a99e" x="621.47" y="188.519194" style="stroke: #000000; stroke-width: 0.8"/>
      </g>
     </g>
     <g id="text_41">
      <!-- 60 -->
      <g transform="translate(601.745 192.318413) scale(0.1 -0.1)">
       <use xlink:href="#DejaVuSans-36"/>
       <use xlink:href="#DejaVuSans-30" transform="translate(63.623047 0)"/>
      </g>
     </g>
    </g>
    <g id="ytick_19">
     <g id="line2d_37">
      <g>
       <use xlink:href="#m854f36a99e" x="621.47" y="121.379342" style="stroke: #000000; stroke-width: 0.8"/>
      </g>
     </g>
     <g id="text_42">
      <!-- 80 -->
      <g transform="translate(601.745 125.178561) scale(0.1 -0.1)">
       <use xlink:href="#DejaVuSans-38"/>
       <use xlink:href="#DejaVuSans-30" transform="translate(63.623047 0)"/>
      </g>
     </g>
    </g>
    <g id="ytick_20">
     <g id="line2d_38">
      <g>
       <use xlink:href="#m854f36a99e" x="621.47" y="54.23949" style="stroke: #000000; stroke-width: 0.8"/>
      </g>
     </g>
     <g id="text_43">
      <!-- 100 -->
      <g transform="translate(595.3825 58.038708) scale(0.1 -0.1)">
       <use xlink:href="#DejaVuSans-31"/>
       <use xlink:href="#DejaVuSans-30" transform="translate(63.623047 0)"/>
       <use xlink:href="#DejaVuSans-30" transform="translate(127.246094 0)"/>
      </g>
     </g>
    </g>
    <g id="text_44">
     <!-- Count -->
     <g transform="translate(589.302812 223.257812) rotate(-90) scale(0.1 -0.1)">
      <use xlink:href="#DejaVuSans-43"/>
      <use xlink:href="#DejaVuSans-6f" transform="translate(69.824219 0)"/>
      <use xlink:href="#DejaVuSans-75" transform="translate(131.005859 0)"/>
      <use xlink:href="#DejaVuSans-6e" transform="translate(194.384766 0)"/>
      <use xlink:href="#DejaVuSans-74" transform="translate(257.763672 0)"/>
     </g>
    </g>
   </g>
   <g id="line2d_39">
    <path d="M 563.456314 389.194024 
L 566.94684 388.676662 
L 570.437367 387.867175 
L 572.18263 387.316212 
L 573.927893 386.644927 
L 575.673156 385.834365 
L 577.418419 384.864424 
L 579.163682 383.714228 
L 580.908946 382.36262 
L 582.654209 380.788746 
L 584.399472 378.972749 
L 586.144735 376.89653 
L 587.889998 374.544564 
L 589.635261 371.904728 
L 591.380525 368.969113 
L 593.125788 365.734758 
L 594.871051 362.204277 
L 596.616314 358.386321 
L 600.106841 349.954111 
L 603.597367 340.632045 
L 608.833156 325.614478 
L 615.814209 305.512201 
L 619.304735 296.202715 
L 622.795262 287.747571 
L 626.285788 280.310386 
L 628.031051 276.999745 
L 629.776315 273.964636 
L 631.521578 271.202216 
L 633.266841 268.706077 
L 635.012104 266.46701 
L 636.757367 264.47374 
L 638.50263 262.713624 
L 640.247894 261.173268 
L 641.993157 259.839045 
L 643.73842 258.697526 
L 645.483683 257.735811 
L 647.228946 256.941777 
L 648.97421 256.304246 
L 650.719473 255.813093 
L 652.464736 255.459298 
L 654.209999 255.234952 
L 655.955262 255.133207 
L 657.700525 255.148186 
L 661.191052 255.508767 
L 664.681578 256.282526 
L 668.172104 257.437064 
L 671.662631 258.932065 
L 675.153157 260.710299 
L 680.388947 263.727976 
L 687.369999 267.82749 
L 690.860526 269.636077 
L 694.351052 271.13692 
L 697.841578 272.250691 
L 701.332105 272.933208 
L 704.822631 273.178462 
L 708.313158 273.016371 
L 711.803684 272.505641 
L 715.29421 271.722704 
L 720.53 270.212595 
L 727.511053 267.896776 
L 734.492105 265.407121 
L 739.727895 263.357049 
L 744.963684 261.049442 
L 750.199474 258.456449 
L 762.416316 252.116127 
L 765.906842 250.638791 
L 769.397369 249.510498 
L 771.142632 249.105354 
L 772.887895 248.816608 
L 774.633158 248.64834 
L 776.378422 248.601252 
L 778.123685 248.6725 
L 781.614211 249.141014 
L 785.104737 249.96396 
L 790.340527 251.569406 
L 795.576316 253.157694 
L 799.066843 253.969493 
L 802.557369 254.462027 
L 806.047896 254.581338 
L 809.538422 254.323738 
L 813.028948 253.735545 
L 816.519475 252.909192 
L 823.500527 251.105262 
L 826.991054 250.486281 
L 828.736317 250.337945 
L 830.48158 250.334659 
L 832.226843 250.505703 
L 833.972106 250.880899 
L 835.71737 251.490246 
L 837.462633 252.363446 
L 839.207896 253.529291 
L 840.953159 255.014921 
L 842.698422 256.844959 
L 844.443685 259.040534 
L 846.188949 261.618253 
L 847.934212 264.589158 
L 849.679475 267.957749 
L 851.424738 271.721135 
L 853.170001 275.868379 
L 854.915265 280.380122 
L 858.405791 290.377481 
L 861.896317 301.396103 
L 874.113159 341.569691 
L 877.603686 351.648179 
L 879.348949 356.235812 
L 881.094212 360.490267 
L 882.839475 364.397631 
L 884.584739 367.951803 
L 886.330002 371.153908 
L 888.075265 374.011515 
L 889.820528 376.537698 
L 891.565791 378.750014 
L 893.311054 380.669448 
L 895.056318 382.319375 
L 896.801581 383.724595 
L 898.546844 384.91045 
L 900.292107 385.902072 
L 902.03737 386.723761 
L 903.782633 387.398493 
L 907.27316 388.390408 
L 910.763686 389.02478 
L 910.763686 389.02478 
" clip-path="url(#pceb6d54356)" style="fill: none; stroke: #1f77b4; stroke-width: 1.5; stroke-linecap: square"/>
   </g>
   <g id="patch_73">
    <path d="M 621.47 389.93875 
L 621.47 26.88 
" style="fill: none; stroke: #000000; stroke-width: 0.8; stroke-linejoin: miter; stroke-linecap: square"/>
   </g>
   <g id="patch_74">
    <path d="M 852.75 389.93875 
L 852.75 26.88 
" style="fill: none; stroke: #000000; stroke-width: 0.8; stroke-linejoin: miter; stroke-linecap: square"/>
   </g>
   <g id="patch_75">
    <path d="M 621.47 389.93875 
L 852.75 389.93875 
" style="fill: none; stroke: #000000; stroke-width: 0.8; stroke-linejoin: miter; stroke-linecap: square"/>
   </g>
   <g id="patch_76">
    <path d="M 621.47 26.88 
L 852.75 26.88 
" style="fill: none; stroke: #000000; stroke-width: 0.8; stroke-linejoin: miter; stroke-linecap: square"/>
   </g>
   <g id="text_45">
    <!-- Rozkład atrybutu Courier_Experience_yrs -->
    <g transform="translate(613.537187 20.88) scale(0.12 -0.12)">
     <use xlink:href="#DejaVuSans-52"/>
     <use xlink:href="#DejaVuSans-6f" transform="translate(64.982422 0)"/>
     <use xlink:href="#DejaVuSans-7a" transform="translate(126.164062 0)"/>
     <use xlink:href="#DejaVuSans-6b" transform="translate(178.654297 0)"/>
     <use xlink:href="#DejaVuSans-142" transform="translate(236.564453 0)"/>
     <use xlink:href="#DejaVuSans-61" transform="translate(264.982422 0)"/>
     <use xlink:href="#DejaVuSans-64" transform="translate(326.261719 0)"/>
     <use xlink:href="#DejaVuSans-20" transform="translate(389.738281 0)"/>
     <use xlink:href="#DejaVuSans-61" transform="translate(421.525391 0)"/>
     <use xlink:href="#DejaVuSans-74" transform="translate(482.804688 0)"/>
     <use xlink:href="#DejaVuSans-72" transform="translate(522.013672 0)"/>
     <use xlink:href="#DejaVuSans-79" transform="translate(563.126953 0)"/>
     <use xlink:href="#DejaVuSans-62" transform="translate(622.306641 0)"/>
     <use xlink:href="#DejaVuSans-75" transform="translate(685.783203 0)"/>
     <use xlink:href="#DejaVuSans-74" transform="translate(749.162109 0)"/>
     <use xlink:href="#DejaVuSans-75" transform="translate(788.371094 0)"/>
     <use xlink:href="#DejaVuSans-20" transform="translate(851.75 0)"/>
     <use xlink:href="#DejaVuSans-43" transform="translate(883.537109 0)"/>
     <use xlink:href="#DejaVuSans-6f" transform="translate(953.361328 0)"/>
     <use xlink:href="#DejaVuSans-75" transform="translate(1014.542969 0)"/>
     <use xlink:href="#DejaVuSans-72" transform="translate(1077.921875 0)"/>
     <use xlink:href="#DejaVuSans-69" transform="translate(1119.035156 0)"/>
     <use xlink:href="#DejaVuSans-65" transform="translate(1146.818359 0)"/>
     <use xlink:href="#DejaVuSans-72" transform="translate(1208.341797 0)"/>
     <use xlink:href="#DejaVuSans-5f" transform="translate(1249.455078 0)"/>
     <use xlink:href="#DejaVuSans-45" transform="translate(1299.455078 0)"/>
     <use xlink:href="#DejaVuSans-78" transform="translate(1362.638672 0)"/>
     <use xlink:href="#DejaVuSans-70" transform="translate(1421.818359 0)"/>
     <use xlink:href="#DejaVuSans-65" transform="translate(1485.294922 0)"/>
     <use xlink:href="#DejaVuSans-72" transform="translate(1546.818359 0)"/>
     <use xlink:href="#DejaVuSans-69" transform="translate(1587.931641 0)"/>
     <use xlink:href="#DejaVuSans-65" transform="translate(1615.714844 0)"/>
     <use xlink:href="#DejaVuSans-6e" transform="translate(1677.238281 0)"/>
     <use xlink:href="#DejaVuSans-63" transform="translate(1740.617188 0)"/>
     <use xlink:href="#DejaVuSans-65" transform="translate(1795.597656 0)"/>
     <use xlink:href="#DejaVuSans-5f" transform="translate(1857.121094 0)"/>
     <use xlink:href="#DejaVuSans-79" transform="translate(1907.121094 0)"/>
     <use xlink:href="#DejaVuSans-72" transform="translate(1966.300781 0)"/>
     <use xlink:href="#DejaVuSans-73" transform="translate(2007.414062 0)"/>
    </g>
   </g>
  </g>
  <g id="axes_4">
   <g id="patch_77">
    <path d="M 909.92 389.93875 
L 1141.2 389.93875 
L 1141.2 26.88 
L 909.92 26.88 
z
" style="fill: #ffffff"/>
   </g>
   <g id="patch_78">
    <path d="M 941.496436 389.93875 
L 949.902793 389.93875 
L 949.902793 379.867772 
L 941.496436 379.867772 
z
" clip-path="url(#pc2d2cb1d3d)" style="fill: #1f77b4; fill-opacity: 0.5; stroke: #ffffff; stroke-width: 0.70545; stroke-linejoin: miter"/>
   </g>
   <g id="patch_79">
    <path d="M 949.902793 389.93875 
L 958.309149 389.93875 
L 958.309149 309.370928 
L 949.902793 309.370928 
z
" clip-path="url(#pc2d2cb1d3d)" style="fill: #1f77b4; fill-opacity: 0.5; stroke: #ffffff; stroke-width: 0.70545; stroke-linejoin: miter"/>
   </g>
   <g id="patch_80">
    <path d="M 958.309149 389.93875 
L 966.715505 389.93875 
L 966.715505 259.016038 
L 958.309149 259.016038 
z
" clip-path="url(#pc2d2cb1d3d)" style="fill: #1f77b4; fill-opacity: 0.5; stroke: #ffffff; stroke-width: 0.70545; stroke-linejoin: miter"/>
   </g>
   <g id="patch_81">
    <path d="M 966.715505 389.93875 
L 975.121862 389.93875 
L 975.121862 118.022349 
L 966.715505 118.022349 
z
" clip-path="url(#pc2d2cb1d3d)" style="fill: #1f77b4; fill-opacity: 0.5; stroke: #ffffff; stroke-width: 0.70545; stroke-linejoin: miter"/>
   </g>
   <g id="patch_82">
    <path d="M 975.121862 389.93875 
L 983.528218 389.93875 
L 983.528218 101.237386 
L 975.121862 101.237386 
z
" clip-path="url(#pc2d2cb1d3d)" style="fill: #1f77b4; fill-opacity: 0.5; stroke: #ffffff; stroke-width: 0.70545; stroke-linejoin: miter"/>
   </g>
   <g id="patch_83">
    <path d="M 983.528218 389.93875 
L 991.934575 389.93875 
L 991.934575 67.66746 
L 983.528218 67.66746 
z
" clip-path="url(#pc2d2cb1d3d)" style="fill: #1f77b4; fill-opacity: 0.5; stroke: #ffffff; stroke-width: 0.70545; stroke-linejoin: miter"/>
   </g>
   <g id="patch_84">
    <path d="M 991.934575 389.93875 
L 1000.340931 389.93875 
L 1000.340931 44.168512 
L 991.934575 44.168512 
z
" clip-path="url(#pc2d2cb1d3d)" style="fill: #1f77b4; fill-opacity: 0.5; stroke: #ffffff; stroke-width: 0.70545; stroke-linejoin: miter"/>
   </g>
   <g id="patch_85">
    <path d="M 1000.340931 389.93875 
L 1008.747287 389.93875 
L 1008.747287 57.596482 
L 1000.340931 57.596482 
z
" clip-path="url(#pc2d2cb1d3d)" style="fill: #1f77b4; fill-opacity: 0.5; stroke: #ffffff; stroke-width: 0.70545; stroke-linejoin: miter"/>
   </g>
   <g id="patch_86">
    <path d="M 1008.747287 389.93875 
L 1017.153644 389.93875 
L 1017.153644 111.308364 
L 1008.747287 111.308364 
z
" clip-path="url(#pc2d2cb1d3d)" style="fill: #1f77b4; fill-opacity: 0.5; stroke: #ffffff; stroke-width: 0.70545; stroke-linejoin: miter"/>
   </g>
   <g id="patch_87">
    <path d="M 1017.153644 389.93875 
L 1025.56 389.93875 
L 1025.56 44.168512 
L 1017.153644 44.168512 
z
" clip-path="url(#pc2d2cb1d3d)" style="fill: #1f77b4; fill-opacity: 0.5; stroke: #ffffff; stroke-width: 0.70545; stroke-linejoin: miter"/>
   </g>
   <g id="patch_88">
    <path d="M 1025.56 389.93875 
L 1033.966356 389.93875 
L 1033.966356 188.519194 
L 1025.56 188.519194 
z
" clip-path="url(#pc2d2cb1d3d)" style="fill: #1f77b4; fill-opacity: 0.5; stroke: #ffffff; stroke-width: 0.70545; stroke-linejoin: miter"/>
   </g>
   <g id="patch_89">
    <path d="M 1033.966356 389.93875 
L 1042.372713 389.93875 
L 1042.372713 295.942957 
L 1033.966356 295.942957 
z
" clip-path="url(#pc2d2cb1d3d)" style="fill: #1f77b4; fill-opacity: 0.5; stroke: #ffffff; stroke-width: 0.70545; stroke-linejoin: miter"/>
   </g>
   <g id="patch_90">
    <path d="M 1042.372713 389.93875 
L 1050.779069 389.93875 
L 1050.779069 272.444009 
L 1042.372713 272.444009 
z
" clip-path="url(#pc2d2cb1d3d)" style="fill: #1f77b4; fill-opacity: 0.5; stroke: #ffffff; stroke-width: 0.70545; stroke-linejoin: miter"/>
   </g>
   <g id="patch_91">
    <path d="M 1050.779069 389.93875 
L 1059.185425 389.93875 
L 1059.185425 329.512883 
L 1050.779069 329.512883 
z
" clip-path="url(#pc2d2cb1d3d)" style="fill: #1f77b4; fill-opacity: 0.5; stroke: #ffffff; stroke-width: 0.70545; stroke-linejoin: miter"/>
   </g>
   <g id="patch_92">
    <path d="M 1059.185425 389.93875 
L 1067.591782 389.93875 
L 1067.591782 363.082809 
L 1059.185425 363.082809 
z
" clip-path="url(#pc2d2cb1d3d)" style="fill: #1f77b4; fill-opacity: 0.5; stroke: #ffffff; stroke-width: 0.70545; stroke-linejoin: miter"/>
   </g>
   <g id="patch_93">
    <path d="M 1067.591782 389.93875 
L 1075.998138 389.93875 
L 1075.998138 356.368824 
L 1067.591782 356.368824 
z
" clip-path="url(#pc2d2cb1d3d)" style="fill: #1f77b4; fill-opacity: 0.5; stroke: #ffffff; stroke-width: 0.70545; stroke-linejoin: miter"/>
   </g>
   <g id="patch_94">
    <path d="M 1075.998138 389.93875 
L 1084.404495 389.93875 
L 1084.404495 379.867772 
L 1075.998138 379.867772 
z
" clip-path="url(#pc2d2cb1d3d)" style="fill: #1f77b4; fill-opacity: 0.5; stroke: #ffffff; stroke-width: 0.70545; stroke-linejoin: miter"/>
   </g>
   <g id="patch_95">
    <path d="M 1084.404495 389.93875 
L 1092.810851 389.93875 
L 1092.810851 379.867772 
L 1084.404495 379.867772 
z
" clip-path="url(#pc2d2cb1d3d)" style="fill: #1f77b4; fill-opacity: 0.5; stroke: #ffffff; stroke-width: 0.70545; stroke-linejoin: miter"/>
   </g>
   <g id="patch_96">
    <path d="M 1092.810851 389.93875 
L 1101.217207 389.93875 
L 1101.217207 389.93875 
L 1092.810851 389.93875 
z
" clip-path="url(#pc2d2cb1d3d)" style="fill: #1f77b4; fill-opacity: 0.5; stroke: #ffffff; stroke-width: 0.70545; stroke-linejoin: miter"/>
   </g>
   <g id="patch_97">
    <path d="M 1101.217207 389.93875 
L 1109.623564 389.93875 
L 1109.623564 386.581757 
L 1101.217207 386.581757 
z
" clip-path="url(#pc2d2cb1d3d)" style="fill: #1f77b4; fill-opacity: 0.5; stroke: #ffffff; stroke-width: 0.70545; stroke-linejoin: miter"/>
   </g>
   <g id="matplotlib.axis_7">
    <g id="xtick_17">
     <g id="line2d_40">
      <g>
       <use xlink:href="#mb72b07fc28" x="931.383527" y="389.93875" style="stroke: #000000; stroke-width: 0.8"/>
      </g>
     </g>
     <g id="text_46">
      <!-- 0 -->
      <g transform="translate(928.202277 404.537187) scale(0.1 -0.1)">
       <use xlink:href="#DejaVuSans-30"/>
      </g>
     </g>
    </g>
    <g id="xtick_18">
     <g id="line2d_41">
      <g>
       <use xlink:href="#mb72b07fc28" x="994.589213" y="389.93875" style="stroke: #000000; stroke-width: 0.8"/>
      </g>
     </g>
     <g id="text_47">
      <!-- 50 -->
      <g transform="translate(988.226713 404.537187) scale(0.1 -0.1)">
       <use xlink:href="#DejaVuSans-35"/>
       <use xlink:href="#DejaVuSans-30" transform="translate(63.623047 0)"/>
      </g>
     </g>
    </g>
    <g id="xtick_19">
     <g id="line2d_42">
      <g>
       <use xlink:href="#mb72b07fc28" x="1057.7949" y="389.93875" style="stroke: #000000; stroke-width: 0.8"/>
      </g>
     </g>
     <g id="text_48">
      <!-- 100 -->
      <g transform="translate(1048.25115 404.537187) scale(0.1 -0.1)">
       <use xlink:href="#DejaVuSans-31"/>
       <use xlink:href="#DejaVuSans-30" transform="translate(63.623047 0)"/>
       <use xlink:href="#DejaVuSans-30" transform="translate(127.246094 0)"/>
      </g>
     </g>
    </g>
    <g id="xtick_20">
     <g id="line2d_43">
      <g>
       <use xlink:href="#mb72b07fc28" x="1121.000587" y="389.93875" style="stroke: #000000; stroke-width: 0.8"/>
      </g>
     </g>
     <g id="text_49">
      <!-- 150 -->
      <g transform="translate(1111.456837 404.537187) scale(0.1 -0.1)">
       <use xlink:href="#DejaVuSans-31"/>
       <use xlink:href="#DejaVuSans-35" transform="translate(63.623047 0)"/>
       <use xlink:href="#DejaVuSans-30" transform="translate(127.246094 0)"/>
      </g>
     </g>
    </g>
    <g id="text_50">
     <!-- Delivery_Time_min -->
     <g transform="translate(978.142812 418.215312) scale(0.1 -0.1)">
      <defs>
       <path id="DejaVuSans-6c" d="M 603 4863 
L 1178 4863 
L 1178 0 
L 603 0 
L 603 4863 
z
" transform="scale(0.015625)"/>
       <path id="DejaVuSans-76" d="M 191 3500 
L 800 3500 
L 1894 563 
L 2988 3500 
L 3597 3500 
L 2284 0 
L 1503 0 
L 191 3500 
z
" transform="scale(0.015625)"/>
      </defs>
      <use xlink:href="#DejaVuSans-44"/>
      <use xlink:href="#DejaVuSans-65" transform="translate(77.001953 0)"/>
      <use xlink:href="#DejaVuSans-6c" transform="translate(138.525391 0)"/>
      <use xlink:href="#DejaVuSans-69" transform="translate(166.308594 0)"/>
      <use xlink:href="#DejaVuSans-76" transform="translate(194.091797 0)"/>
      <use xlink:href="#DejaVuSans-65" transform="translate(253.271484 0)"/>
      <use xlink:href="#DejaVuSans-72" transform="translate(314.794922 0)"/>
      <use xlink:href="#DejaVuSans-79" transform="translate(355.908203 0)"/>
      <use xlink:href="#DejaVuSans-5f" transform="translate(415.087891 0)"/>
      <use xlink:href="#DejaVuSans-54" transform="translate(465.087891 0)"/>
      <use xlink:href="#DejaVuSans-69" transform="translate(523.046875 0)"/>
      <use xlink:href="#DejaVuSans-6d" transform="translate(550.830078 0)"/>
      <use xlink:href="#DejaVuSans-65" transform="translate(648.242188 0)"/>
      <use xlink:href="#DejaVuSans-5f" transform="translate(709.765625 0)"/>
      <use xlink:href="#DejaVuSans-6d" transform="translate(759.765625 0)"/>
      <use xlink:href="#DejaVuSans-69" transform="translate(857.177734 0)"/>
      <use xlink:href="#DejaVuSans-6e" transform="translate(884.960938 0)"/>
     </g>
    </g>
   </g>
   <g id="matplotlib.axis_8">
    <g id="ytick_21">
     <g id="line2d_44">
      <g>
       <use xlink:href="#m854f36a99e" x="909.92" y="389.93875" style="stroke: #000000; stroke-width: 0.8"/>
      </g>
     </g>
     <g id="text_51">
      <!-- 0 -->
      <g transform="translate(896.5575 393.737969) scale(0.1 -0.1)">
       <use xlink:href="#DejaVuSans-30"/>
      </g>
     </g>
    </g>
    <g id="ytick_22">
     <g id="line2d_45">
      <g>
       <use xlink:href="#m854f36a99e" x="909.92" y="322.798898" style="stroke: #000000; stroke-width: 0.8"/>
      </g>
     </g>
     <g id="text_52">
      <!-- 20 -->
      <g transform="translate(890.195 326.598117) scale(0.1 -0.1)">
       <use xlink:href="#DejaVuSans-32"/>
       <use xlink:href="#DejaVuSans-30" transform="translate(63.623047 0)"/>
      </g>
     </g>
    </g>
    <g id="ytick_23">
     <g id="line2d_46">
      <g>
       <use xlink:href="#m854f36a99e" x="909.92" y="255.659046" style="stroke: #000000; stroke-width: 0.8"/>
      </g>
     </g>
     <g id="text_53">
      <!-- 40 -->
      <g transform="translate(890.195 259.458265) scale(0.1 -0.1)">
       <use xlink:href="#DejaVuSans-34"/>
       <use xlink:href="#DejaVuSans-30" transform="translate(63.623047 0)"/>
      </g>
     </g>
    </g>
    <g id="ytick_24">
     <g id="line2d_47">
      <g>
       <use xlink:href="#m854f36a99e" x="909.92" y="188.519194" style="stroke: #000000; stroke-width: 0.8"/>
      </g>
     </g>
     <g id="text_54">
      <!-- 60 -->
      <g transform="translate(890.195 192.318413) scale(0.1 -0.1)">
       <use xlink:href="#DejaVuSans-36"/>
       <use xlink:href="#DejaVuSans-30" transform="translate(63.623047 0)"/>
      </g>
     </g>
    </g>
    <g id="ytick_25">
     <g id="line2d_48">
      <g>
       <use xlink:href="#m854f36a99e" x="909.92" y="121.379342" style="stroke: #000000; stroke-width: 0.8"/>
      </g>
     </g>
     <g id="text_55">
      <!-- 80 -->
      <g transform="translate(890.195 125.178561) scale(0.1 -0.1)">
       <use xlink:href="#DejaVuSans-38"/>
       <use xlink:href="#DejaVuSans-30" transform="translate(63.623047 0)"/>
      </g>
     </g>
    </g>
    <g id="ytick_26">
     <g id="line2d_49">
      <g>
       <use xlink:href="#m854f36a99e" x="909.92" y="54.23949" style="stroke: #000000; stroke-width: 0.8"/>
      </g>
     </g>
     <g id="text_56">
      <!-- 100 -->
      <g transform="translate(883.8325 58.038708) scale(0.1 -0.1)">
       <use xlink:href="#DejaVuSans-31"/>
       <use xlink:href="#DejaVuSans-30" transform="translate(63.623047 0)"/>
       <use xlink:href="#DejaVuSans-30" transform="translate(127.246094 0)"/>
      </g>
     </g>
    </g>
    <g id="text_57">
     <!-- Count -->
     <g transform="translate(877.752812 223.257812) rotate(-90) scale(0.1 -0.1)">
      <use xlink:href="#DejaVuSans-43"/>
      <use xlink:href="#DejaVuSans-6f" transform="translate(69.824219 0)"/>
      <use xlink:href="#DejaVuSans-75" transform="translate(131.005859 0)"/>
      <use xlink:href="#DejaVuSans-6e" transform="translate(194.384766 0)"/>
      <use xlink:href="#DejaVuSans-74" transform="translate(257.763672 0)"/>
     </g>
    </g>
   </g>
   <g id="line2d_50">
    <path d="M 920.432727 389.918912 
L 925.715505 389.774054 
L 928.885171 389.457342 
L 930.998282 389.018237 
L 933.111393 388.256077 
L 934.167949 387.697883 
L 935.224504 386.982693 
L 936.28106 386.075247 
L 937.337615 384.935718 
L 938.394171 383.520527 
L 939.450726 381.783751 
L 940.507282 379.679089 
L 941.563837 377.162256 
L 942.620393 374.193567 
L 943.676948 370.74037 
L 944.733504 366.778948 
L 945.790059 362.295543 
L 947.90317 351.755841 
L 950.016281 339.17911 
L 952.129392 324.677488 
L 954.242503 308.340596 
L 956.355614 290.22358 
L 958.468725 270.428713 
L 961.638392 238.293735 
L 965.864614 194.569334 
L 967.977725 174.373685 
L 970.090836 156.248996 
L 972.203947 140.411296 
L 974.317058 126.620931 
L 976.430169 114.337982 
L 979.599836 97.551063 
L 982.769502 82.212103 
L 984.882613 73.363241 
L 985.939169 69.608372 
L 986.995724 66.420917 
L 988.05228 63.875784 
L 989.108835 62.024637 
L 990.165391 60.889513 
L 991.221946 60.459316 
L 992.278502 60.68952 
L 993.335057 61.505064 
L 994.391613 62.806032 
L 995.448168 64.475381 
L 997.561279 68.418116 
L 999.67439 72.379704 
L 1000.730946 74.12296 
L 1001.787501 75.613525 
L 1002.844057 76.804432 
L 1003.900612 77.666634 
L 1004.957168 78.187944 
L 1006.013723 78.372789 
L 1007.070279 78.243226 
L 1008.126834 77.841242 
L 1010.239945 76.505954 
L 1011.296501 75.782238 
L 1012.353056 75.20633 
L 1013.409612 74.947052 
L 1014.466167 75.18904 
L 1015.522723 76.122122 
L 1016.579278 77.928319 
L 1017.635834 80.76785 
L 1018.692389 84.765758 
L 1019.748945 90.000818 
L 1020.8055 96.498058 
L 1021.862056 104.22575 
L 1022.918611 113.097091 
L 1025.031722 133.687084 
L 1028.201389 168.698679 
L 1031.371055 203.468115 
L 1033.484166 224.085741 
L 1035.597277 241.63615 
L 1036.653833 249.170842 
L 1037.710388 255.904587 
L 1038.766944 261.898851 
L 1040.880055 272.04399 
L 1042.993166 280.503327 
L 1052.502165 315.914078 
L 1055.671832 327.377005 
L 1057.784943 334.102346 
L 1059.898054 339.933939 
L 1062.011165 344.923812 
L 1064.124276 349.239805 
L 1067.293942 354.926206 
L 1074.689831 367.249115 
L 1077.859497 372.22211 
L 1079.972608 375.168123 
L 1082.08572 377.704133 
L 1084.198831 379.815188 
L 1086.311942 381.562839 
L 1088.425053 383.048236 
L 1091.594719 384.965935 
L 1094.764386 386.562917 
L 1096.877497 387.38462 
L 1098.990608 387.95755 
L 1101.103719 388.273417 
L 1103.21683 388.374294 
L 1111.669274 388.378885 
L 1114.83894 388.71676 
L 1122.234829 389.619159 
L 1126.461051 389.848321 
L 1130.687273 389.920937 
L 1130.687273 389.920937 
" clip-path="url(#pc2d2cb1d3d)" style="fill: none; stroke: #1f77b4; stroke-width: 1.5; stroke-linecap: square"/>
   </g>
   <g id="patch_98">
    <path d="M 909.92 389.93875 
L 909.92 26.88 
" style="fill: none; stroke: #000000; stroke-width: 0.8; stroke-linejoin: miter; stroke-linecap: square"/>
   </g>
   <g id="patch_99">
    <path d="M 1141.2 389.93875 
L 1141.2 26.88 
" style="fill: none; stroke: #000000; stroke-width: 0.8; stroke-linejoin: miter; stroke-linecap: square"/>
   </g>
   <g id="patch_100">
    <path d="M 909.92 389.93875 
L 1141.2 389.93875 
" style="fill: none; stroke: #000000; stroke-width: 0.8; stroke-linejoin: miter; stroke-linecap: square"/>
   </g>
   <g id="patch_101">
    <path d="M 909.92 26.88 
L 1141.2 26.88 
" style="fill: none; stroke: #000000; stroke-width: 0.8; stroke-linejoin: miter; stroke-linecap: square"/>
   </g>
   <g id="text_58">
    <!-- Rozkład atrybutu Delivery_Time_min -->
    <g transform="translate(915.6475 20.88) scale(0.12 -0.12)">
     <use xlink:href="#DejaVuSans-52"/>
     <use xlink:href="#DejaVuSans-6f" transform="translate(64.982422 0)"/>
     <use xlink:href="#DejaVuSans-7a" transform="translate(126.164062 0)"/>
     <use xlink:href="#DejaVuSans-6b" transform="translate(178.654297 0)"/>
     <use xlink:href="#DejaVuSans-142" transform="translate(236.564453 0)"/>
     <use xlink:href="#DejaVuSans-61" transform="translate(264.982422 0)"/>
     <use xlink:href="#DejaVuSans-64" transform="translate(326.261719 0)"/>
     <use xlink:href="#DejaVuSans-20" transform="translate(389.738281 0)"/>
     <use xlink:href="#DejaVuSans-61" transform="translate(421.525391 0)"/>
     <use xlink:href="#DejaVuSans-74" transform="translate(482.804688 0)"/>
     <use xlink:href="#DejaVuSans-72" transform="translate(522.013672 0)"/>
     <use xlink:href="#DejaVuSans-79" transform="translate(563.126953 0)"/>
     <use xlink:href="#DejaVuSans-62" transform="translate(622.306641 0)"/>
     <use xlink:href="#DejaVuSans-75" transform="translate(685.783203 0)"/>
     <use xlink:href="#DejaVuSans-74" transform="translate(749.162109 0)"/>
     <use xlink:href="#DejaVuSans-75" transform="translate(788.371094 0)"/>
     <use xlink:href="#DejaVuSans-20" transform="translate(851.75 0)"/>
     <use xlink:href="#DejaVuSans-44" transform="translate(883.537109 0)"/>
     <use xlink:href="#DejaVuSans-65" transform="translate(960.539062 0)"/>
     <use xlink:href="#DejaVuSans-6c" transform="translate(1022.0625 0)"/>
     <use xlink:href="#DejaVuSans-69" transform="translate(1049.845703 0)"/>
     <use xlink:href="#DejaVuSans-76" transform="translate(1077.628906 0)"/>
     <use xlink:href="#DejaVuSans-65" transform="translate(1136.808594 0)"/>
     <use xlink:href="#DejaVuSans-72" transform="translate(1198.332031 0)"/>
     <use xlink:href="#DejaVuSans-79" transform="translate(1239.445312 0)"/>
     <use xlink:href="#DejaVuSans-5f" transform="translate(1298.625 0)"/>
     <use xlink:href="#DejaVuSans-54" transform="translate(1348.625 0)"/>
     <use xlink:href="#DejaVuSans-69" transform="translate(1406.583984 0)"/>
     <use xlink:href="#DejaVuSans-6d" transform="translate(1434.367188 0)"/>
     <use xlink:href="#DejaVuSans-65" transform="translate(1531.779297 0)"/>
     <use xlink:href="#DejaVuSans-5f" transform="translate(1593.302734 0)"/>
     <use xlink:href="#DejaVuSans-6d" transform="translate(1643.302734 0)"/>
     <use xlink:href="#DejaVuSans-69" transform="translate(1740.714844 0)"/>
     <use xlink:href="#DejaVuSans-6e" transform="translate(1768.498047 0)"/>
    </g>
   </g>
  </g>
 </g>
 <defs>
  <clipPath id="pc93662df23">
   <rect x="44.57" y="26.88" width="231.28" height="363.05875"/>
  </clipPath>
  <clipPath id="p926f62c2a7">
   <rect x="333.02" y="26.88" width="231.28" height="363.05875"/>
  </clipPath>
  <clipPath id="pceb6d54356">
   <rect x="621.47" y="26.88" width="231.28" height="363.05875"/>
  </clipPath>
  <clipPath id="pc2d2cb1d3d">
   <rect x="909.92" y="26.88" width="231.28" height="363.05875"/>
  </clipPath>
 </defs>
</svg>
